<?xml version="1.0" encoding="utf-8"?>
<!-- Generator: Adobe Illustrator 16.0.0, SVG Export Plug-In . SVG Version: 6.00 Build 0)  -->
<!DOCTYPE svg PUBLIC "-//W3C//DTD SVG 1.1//EN" "http://www.w3.org/Graphics/SVG/1.1/DTD/svg11.dtd">
<svg version="1.1" id="Layer_1" xmlns="http://www.w3.org/2000/svg" xmlns:xlink="http://www.w3.org/1999/xlink" x="0px" y="0px"
	 width="320.984px" height="84.854px" viewBox="0 0 320.984 84.854" enable-background="new 0 0 320.984 84.854"
	 xml:space="preserve">
<path fill="#363537" d="M34.39,62.549c0.333-6.066-1.322-12.166-2.164-18.252c-0.607-4.374-5.198-20.524-7.127-22.958
	c-2.113-2.664-4.216-5.252-7.902-6.66c-3.706-1.416-8.576-2.76-12.64-2.223C3.056,12.656,1.51,13.142,0,13.768v55.123l22.553,1.689
	C28.819,71.051,34.119,67.453,34.39,62.549z"/>
<path fill="#363537" d="M112.536,22.512c-2.419-2.63-4.828-5.184-9.084-6.546c-4.276-1.369-9.904-2.654-14.617-2.076
	c-4.618,0.565-9.634,3.146-13.213,5.002c-8.78,4.553-14.094,10.621-19.508,17.022c-3.965,4.689-6.172,9.505-8.786,14.593
	c-1.964,3.818-5.768,7.572-3.632,11.854c1.697,3.402,6.531,5.93,11.826,6.223l53.543,2.959c7.256,0.4,13.432-3.234,13.798-8.121
	c0.45-6.037-1.403-12.09-2.316-18.137C119.894,40.938,114.744,24.913,112.536,22.512z"/>
<path fill="#363537" d="M202.996,12.968c-2.449-3.106-4.889-6.123-9.162-7.766c-4.295-1.65-9.94-3.217-14.65-2.592
	c-4.615,0.611-9.606,3.578-13.167,5.712c-8.736,5.233-13.987,12.28-19.334,19.716c-3.916,5.447-6.072,11.062-8.632,16.989
	c-1.923,4.449-5.688,8.803-3.504,13.838c1.736,4.002,6.602,7.018,11.903,7.416l53.613,4.055c7.266,0.553,13.406-3.637,13.719-9.354
	c0.384-7.066-1.538-14.174-2.519-21.263C210.562,34.623,205.232,15.802,202.996,12.968z"/>
<path fill="#363537" d="M285.764,19.138c-2.42-2.65-4.831-5.223-9.087-6.598c-4.277-1.38-9.905-2.677-14.618-2.097
	c-4.618,0.567-9.634,3.165-13.211,5.032c-8.778,4.58-14.09,10.689-19.501,17.133c-3.963,4.721-6.168,9.569-8.78,14.692
	c-1.962,3.844-5.765,7.623-3.626,11.934c1.699,3.428,6.534,5.977,11.829,6.271l53.546,3.004c7.256,0.41,13.431-3.248,13.795-8.17
	c0.447-6.08-1.409-12.176-2.325-18.266C293.13,37.696,287.973,21.556,285.764,19.138z"/>
</svg>
