<?xml version="1.0" encoding="utf-8"?>
<!-- Generator: Adobe Illustrator 16.0.0, SVG Export Plug-In . SVG Version: 6.00 Build 0)  -->
<!DOCTYPE svg PUBLIC "-//W3C//DTD SVG 1.1//EN" "http://www.w3.org/Graphics/SVG/1.1/DTD/svg11.dtd">
<svg version="1.1" id="Layer_1" xmlns="http://www.w3.org/2000/svg" xmlns:xlink="http://www.w3.org/1999/xlink" x="0px" y="0px"
	 width="320.984px" height="84.854px" viewBox="0 0 320.984 84.854" enable-background="new 0 0 320.984 84.854"
	 xml:space="preserve">
<path fill="#FFFFFF" d="M48.992,14.562c-1.653-3.316-3.301-6.536-6.244-8.217c-2.954-1.688-6.852-3.255-10.131-2.462
	c-3.215,0.778-6.724,4.124-9.229,6.528c-6.145,5.899-9.896,13.688-13.721,21.898c-2.801,6.016-4.383,12.17-6.25,18.676
	c-1.402,4.884-4.082,9.706-2.642,15.127c1.145,4.31,4.477,7.466,8.149,7.772L46.09,76.99c5.034,0.42,9.361-4.281,9.664-10.503
	c0.373-7.688-0.853-15.368-1.426-23.052C53.916,37.915,50.504,17.59,48.992,14.562z"/>
<path fill="#D2D3D4" d="M34.704,4.785c-3.165,0.902-6.644,4.655-9.124,7.354c-6.092,6.619-13.38,18.33-14.281,28.256
	c-0.737,8.127,19.297,11.312,24.084,18.191c2.521,3.621-32.827,7.364-32.896,11.933c-0.901-1.186-1.604-2.609-2.011-4.194
	c-1.396-5.417,1.254-10.252,2.647-15.143C4.981,44.67,6.558,38.508,9.33,32.479c3.785-8.229,7.496-16.031,13.551-21.958
	c2.468-2.415,5.926-5.774,9.085-6.565c2.052-0.514,4.345-0.068,6.487,0.754C37.174,4.461,35.899,4.442,34.704,4.785z"/>
<path fill="#FFFFFF" d="M226.646,10.867c-2.271-3.312-4.53-6.523-8.596-8.194c-4.077-1.678-9.459-3.23-13.997-2.424
	c-4.45,0.791-9.318,4.149-12.796,6.564c-8.526,5.926-13.754,13.729-19.083,21.957c-3.905,6.028-6.124,12.189-8.738,18.705
	c-1.964,4.891-5.692,9.725-3.729,15.142c1.562,4.305,6.154,7.448,11.231,7.741l51.378,2.965c6.961,0.4,12.97-4.318,13.418-10.542
	c0.557-7.693-1.1-15.369-1.854-23.053C233.338,34.207,228.719,13.892,226.646,10.867z"/>
<path fill="#D2D3D4" d="M207.978,1.37c-6.505,1.402-11.327,5.938-16.739,10.075c-6.104,4.665-11.991,10.071-16.162,16.442
	c-2.104,3.214-2.948,8.875-2.836,12.6c0.109,3.727,1.442,7.255,3.425,10.436c3.398,5.456,8.364,9.715,14.096,12.858
	c2.717,1.488,5.559,2.767,8.408,4.002c6.968,3.02-35.536-5.539-35.629-0.972c-1.271-1.186-2.259-2.61-2.834-4.194
	c-1.963-5.418,1.767-10.252,3.729-15.143c2.614-6.515,4.833-12.677,8.738-18.704c5.329-8.229,10.557-16.031,19.083-21.957
	c3.478-2.415,8.346-5.774,12.796-6.565c2.77-0.491,6.124-0.249,8.73,0.693C211.071,0.889,209.479,1.046,207.978,1.37z"/>
<path fill="#FFFFFF" d="M142.065,13.263c-3.717-3.124-8.66-5.229-14.054-6.092c-16.203-2.597-28.597,6.422-35.207,17.478
	c-2.619,4.376-4.591,8.981-6.395,13.611c-1.673,4.293-3.638,8.522-5.271,12.816c-0.889,2.326-1.286,4.763-0.203,7.101
	c1.656,3.581,6.095,6.083,10.858,6.161l48.161,0.789c6.525,0.106,11.925-4.075,12.057-9.344c0.217-8.605-0.734-17.229-2.307-25.732
	c-0.71-3.838-1.123-7.96-3.168-11.521C145.397,16.551,143.88,14.785,142.065,13.263z"/>
<path fill="#FFFFFF" d="M288.777,3.801c-0.633-0.343-1.287-0.656-1.966-0.938C271.452-3.524,254.4,6.08,249.283,19.443
	c-5.552,14.488-2.749,32.417-1.646,47.793c0.227,3.159,0.908,6.353,2.802,9.102c2.896,4.215,7.679,6.45,11.722,5.522l40.894-9.357
	c5.542-1.267,8.338-7.767,6.243-14.517c-4.825-15.546-2.313-32.797-12.541-46.997C294.645,8.058,292.009,5.551,288.777,3.801z"/>
<path fill="#D2D3D4" d="M252.479,25.857c-6.906,16.975,2.059,33.41,29.443,43.799c-0.461-0.508-34.207,10.514-34.594,9.92
	c-1.811-2.767-2.38-6.03-2.49-9.274c-0.543-15.793-2.704-34.157,3.442-49.259c5.667-13.931,23.245-24.394,38.521-18.335
	c0.515,0.206,1.002,0.446,1.489,0.688C273.222,1.89,257.94,12.438,252.479,25.857z"/>
<path fill="#D2D3D4" d="M130.854,9.713c-16.203-2.596-28.598,6.423-35.207,17.479c-2.618,4.376-4.507,8.311-5.204,13.205
	c-1.158,8.137,19.484,13.226,17.849,17.519c-0.89,2.328-25.597,0.467-24.515,2.806c0.489,1.058,1.227,2.02,2.139,2.854
	c-2.749-1.048-5.001-2.911-6.078-5.236c-1.081-2.339-0.684-4.774,0.206-7.103c1.634-4.294,3.599-8.522,5.271-12.815
	c1.804-4.63,3.775-9.235,6.393-13.611c6.609-11.056,19.327-20.523,35.528-17.928c4.858,0.777,11.271,3.755,14.831,6.384
	C139.343,11.921,134.058,10.226,130.854,9.713z"/>
<path fill="#E47E7E" d="M320.984,84.854V50.13c-5.391-0.168-10.707-0.32-12.192-0.043c-0.948,0.178-2.157,0.045-3.054,0.367
	c-1.218,0.438-1.692,2.127-2.095,3.185c-0.273,0.723-0.554,1.441-0.849,2.156c-0.57,1.383-1.189,2.748-1.913,4.062
	c-1.337,2.426-3.048,4.675-5.29,6.389c-4.548,3.479-10.58,4.25-16.204,3.764c-5.518-0.478-10.919-2.126-15.803-4.631
	c-3.86-1.979-7.322-4.533-10.766-7.113c-2.55-1.912-5.146-3.729-7.881-5.384c-3.166-1.918-6.552,1.401-8.896,3.035
	c-4.316,3.012-8.315,6.311-12.989,8.828c-3.175,1.708-6.601,3.08-10.108,4.002c-13.188,3.462-26.23-0.764-31.18-4.076
	c-9.201-6.166-10.45-14.462-13.141-21.965c-1.973-5.506-11.898-5.551-15.101-4.445c-2.887,0.998,0.785,9.116-2.635,11.415
	c-13.791,9.278-17.335,10.114-30.527,10.139c-11.674,0.021-27.051-7.734-32.511-13.717c-3.702-4.054-17.656-7.861-21.298-5.946
	c-14.393,7.564-3.349,17.064-20.584,18.731c-11.806,1.142-29.802-4.214-33.32-6.076c-6.758-3.576-9.603-10.595-12.299-9.364
	C0.312,43.458,0.172,43.489,0,43.527v41.326H320.984z"/>
<path fill="#B76869" d="M318.963,50.839c-4.592,0.462-8.272,0.234-11.677,3.652c-2.725,2.737-4.15,6.163-6.211,9.319
	c-1.16,1.777-2.622,3.625-4.305,4.989c-8.193,6.649-22.345,3.193-30.941-0.901c-4.843-2.306-9.009-5.621-13.278-8.749
	c-3.74-2.74-9.126-7.354-14.058-4.498c-2.824,1.636-4.813,4.171-7.136,6.342c-2.227,2.084-4.948,3.783-7.658,5.241
	c-5.734,3.089-12.208,4.758-18.777,4.997c-9.943,0.363-23.306-2.372-29.479-10.517c-1.656-2.187-2.933-4.793-3.863-7.337
	c-2.19-5.979-4.597-15.002-12.727-15.39c-4.567-0.218-5.216,3.925-5.836,7.303c-0.81,4.411-2.868,8.445-7.039,10.807
	c-6.737,3.811-16.134,5.407-23.854,4.783c-9.892-0.803-20.728-3.477-28.442-9.711c-4.341-3.508-8.159-6.238-13.401-8.559
	c-9.269-4.1-17.942-1.408-19.657,3.437c-4.013,11.334-7.38,11.831-14.653,12.834c-3.865,0.532-9.514,0.736-13.317-0.101
	c-7.987-1.758-11.254-2.825-15.374-4.023C9.683,52.549,3.521,47.237,2.829,44.354c1.414,0.001,9.276,6.695,12.785,8.194
	c7.833,3.346,37.869,9.355,40.785-0.228c1.604-5.272,0.167-2.017,1.604-5.272c0.834-1.889,4.884-6.666,8.548-7.417
	c4.736-0.972,13.162,0.099,16.224,2.606c4.32,3.541,9.54,7.268,14.498,10.034c4.559,2.545,9.646,4.451,14.731,5.78
	c7.138,1.865,14.63,1.595,21.7-0.397c5.171-1.457,12.254-3.221,15.72-7.461c2.527-3.094,1.026-7.571,3.124-10.748
	c2.551-3.863,8.741-2.525,12.116-0.477c3.117,1.894,4.421,4.868,5.705,8.029c2.771,6.832,5.802,14.197,12.667,18.165
	c3.019,1.744,7.415,2.695,10.833,3.428c3.655,0.78,7.41,1.048,11.144,0.72c7.575-0.666,14.652-3.645,21.023-7.491
	c3.702-2.236,7.146-4.797,10.675-7.268c2.353-1.648,4.76-3.577,7.83-2.344c4.787,1.925,8.91,6.075,13.216,8.84
	c4.381,2.811,9.085,5.246,14.159,6.693c2.986,0.854,6.088,1.323,9.205,1.415c4.819,0.145,10.544-0.198,14.351-3.386
	c3.737-3.128,4.446-8.07,6.903-11.98c1.702-2.708,4.613-4.291,7.876-4.59c1.59-0.146,3.293-0.004,4.881,0.15
	c0.771,0.074,1.555,0.135,2.282,0.414c0.348,0.132,1.48,1.078,1.742,1.051C319.092,50.825,319.026,50.831,318.963,50.839z"/>
</svg>
