<?xml version="1.0" encoding="utf-8"?>
<!-- Generator: Adobe Illustrator 16.0.0, SVG Export Plug-In . SVG Version: 6.00 Build 0)  -->
<!DOCTYPE svg PUBLIC "-//W3C//DTD SVG 1.1//EN" "http://www.w3.org/Graphics/SVG/1.1/DTD/svg11.dtd">
<svg version="1.1" id="Layer_1" xmlns="http://www.w3.org/2000/svg" xmlns:xlink="http://www.w3.org/1999/xlink" x="0px" y="0px"
	 width="83.44px" height="28.401px" viewBox="0 0 83.44 28.401" enable-background="new 0 0 83.44 28.401" xml:space="preserve">
<g>
	<g>
		<g>
			<g>
				<path fill="#FFFFFF" d="M36.942,5.206c0.625,6.818,1.119,13.605,0.809,20.455c-0.005,0.105,0.079,0.219,0.184,0.241
					c2.041,0.442,3.577,0.508,4.015-1.795c0.123-0.648-0.081-2.244-0.123-2.758c-0.054-0.545-0.107-1.091-0.161-1.637
					c-0.848-3.582,0.541-4.486,4.166-2.712c0.272,2.31,0.023,4.809-0.072,7.119c-0.102,2.442,1.249,2.02,3.052,1.513
					c1.859-0.523,0.805-5.972,0.757-7.107c-0.11-2.622-0.378-6.748-3.391-7.783c-1.503-0.516-2.656-0.578-4.179-0.198
					c-1.568,0.391-1.079,1.223-1.125-1.621c-0.031-1.958,0.413-8.474-2.499-8.907c-2.222-0.33-1.469,4.308-1.427,5.095
					c0.017,0.321,0.517,0.322,0.5,0c-0.019-0.635-0.07-1.268-0.154-1.897c2.499-1.651,3.469-0.858,2.911,2.379
					c0.257,2.167,0.188,4.393,0.217,6.571c0.003,0.256,0.332,0.332,0.466,0.126c3.465-5.308,7.666,1.688,8.025,4.594
					c0.206,1.67,0.227,3.342,0.254,5.021c0.019,1.188,0.37,3.004-1.016,3.394c-2.747,0.773-1.792-4.449-1.795-5.523
					c-0.006-2.38,0.478-5.876-2.562-6.293c-2.586-0.354-2.655,4.979-2.627,6.23c0.054,0.546,0.107,1.092,0.161,1.637
					c0.707,2.027-0.29,2.84-2.991,2.439c0.084-1.854,0.043-3.713,0.009-5.567c-0.08-4.347-0.506-8.689-0.903-13.016
					C37.413,4.888,36.913,4.885,36.942,5.206L36.942,5.206z"/>
			</g>
		</g>
		<g>
			<g>
				<path fill="#FFFFFF" d="M37.415,0.622c-2.817,1.908-1.669,3.725-1.439,6.952c0.261,3.654,0.044,7.446,0.04,11.114
					c-0.003,2.584-0.797,5.103-0.274,7.664c0.016,0.076,0.096,0.162,0.175,0.174c1.023,0.156,1.338,0.104,2.121-0.648
					c0.233-0.224-0.121-0.577-0.354-0.354c-1.986,1.907-1.235-4.958-1.223-5.136c0.167-2.33,0.027-4.688-0.015-7.021
					c-0.044-2.444-1.319-10.593,1.222-12.314C37.933,0.874,37.683,0.44,37.415,0.622L37.415,0.622z"/>
			</g>
		</g>
		<g>
			<g>
				<path fill="#FFFFFF" d="M36.271,26.85c0.987,0.281,1.792,0.939,2.86,0.793c0.908-0.125,1.395-1.071,1.85-1.744
					c0.181-0.268-0.252-0.518-0.432-0.252c-0.544,0.805-1.014,1.7-2.165,1.496c-0.686-0.122-1.306-0.583-1.98-0.775
					C36.093,26.279,35.961,26.762,36.271,26.85L36.271,26.85z"/>
			</g>
		</g>
		<g>
			<g>
				<path fill="#FFFFFF" d="M42.105,15.459c2.602-0.954,2.487,3.68,2.396,5.034c-0.161,2.41-0.418,4.788-0.012,7.188
					c0.029,0.171,0.235,0.213,0.367,0.149c0.929-0.448,1.442-1.079,2.002-1.932c0.178-0.271-0.256-0.521-0.432-0.252
					c-1.362,2.073-1.677,0.272-1.677-1.116c0-1.088,0.107-2.179,0.191-3.261c0.09-1.154,0.191-2.295-0.01-3.444
					c-0.285-1.632-0.975-3.577-2.96-2.849C41.672,15.087,41.802,15.57,42.105,15.459L42.105,15.459z"/>
			</g>
		</g>
		<g>
			<g>
				<path fill="#FFFFFF" d="M44.731,28.099c0.963,0.029,2.276,0.519,3.181,0.013c1.001-0.561,1.071-1.903,1.587-2.826
					c0.157-0.281-0.274-0.533-0.432-0.252c-0.432,0.772-0.535,1.773-1.115,2.451c-0.628,0.735-2.407,0.139-3.221,0.114
					C44.409,27.589,44.41,28.089,44.731,28.099L44.731,28.099z"/>
			</g>
		</g>
	</g>
	<g>
		<g>
			<path fill="#FFFFFF" d="M59.726,19.033c-3.114-0.017-2.987,4.85-0.478,5.761c3.261,1.183,3.554-5.062,0.544-5.752
				c-0.313-0.072-0.447,0.41-0.133,0.482c2.539,0.582,2.144,5.904-0.363,4.745c-1.866-0.863-2.082-4.75,0.43-4.736
				C60.048,19.535,60.048,19.035,59.726,19.033L59.726,19.033z"/>
		</g>
	</g>
	<g>
		<g>
			<path fill="#FFFFFF" d="M59.481,18.899c-1.29,0.448-2.675,0.789-3.741,1.684c-1.076,0.902-1.106,2.48-0.769,3.73
				c0.789,2.919,4.308,1.911,5.938,0.461c0.241-0.215-0.113-0.567-0.354-0.354c-1.573,1.398-4.457,2.15-5.175-0.505
				c-0.809-2.992,2.059-3.779,4.232-4.534C59.917,19.276,59.787,18.793,59.481,18.899L59.481,18.899z"/>
		</g>
	</g>
	<g>
		<g>
			<path fill="#FFFFFF" d="M70.28,19.033c-3.114-0.017-2.99,4.85-0.479,5.761c3.26,1.182,3.557-5.062,0.546-5.752
				c-0.313-0.072-0.447,0.41-0.133,0.482c2.536,0.581,2.145,5.906-0.365,4.745c-1.868-0.864-2.08-4.75,0.432-4.736
				C70.603,19.535,70.603,19.035,70.28,19.033L70.28,19.033z"/>
		</g>
	</g>
	<g>
		<g>
			<path fill="#FFFFFF" d="M70.034,18.899c-1.289,0.448-2.673,0.789-3.739,1.684c-1.076,0.902-1.106,2.48-0.77,3.73
				c0.788,2.92,4.31,1.91,5.939,0.461c0.241-0.215-0.113-0.567-0.354-0.354c-1.572,1.398-4.458,2.151-5.175-0.505
				c-0.808-2.992,2.057-3.778,4.23-4.534C70.47,19.276,70.34,18.793,70.034,18.899L70.034,18.899z"/>
		</g>
	</g>
	<g>
		<g>
			<path fill="#FFFFFF" d="M81.284,18.734c-3.114-0.017-2.989,4.85-0.479,5.761c3.261,1.183,3.555-5.062,0.545-5.752
				c-0.313-0.072-0.447,0.41-0.133,0.482c2.539,0.582,2.143,5.904-0.364,4.745c-1.867-0.863-2.081-4.75,0.431-4.736
				C81.606,19.236,81.606,18.736,81.284,18.734L81.284,18.734z"/>
		</g>
	</g>
	<g>
		<g>
			<path fill="#FFFFFF" d="M81.039,18.601c-1.289,0.448-2.674,0.789-3.74,1.684c-1.076,0.902-1.106,2.48-0.77,3.73
				c0.789,2.919,4.309,1.911,5.939,0.461c0.241-0.215-0.113-0.567-0.354-0.354c-1.572,1.398-4.457,2.151-5.175-0.505
				c-0.809-2.992,2.058-3.778,4.231-4.534C81.475,18.978,81.345,18.494,81.039,18.601L81.039,18.601z"/>
		</g>
	</g>
	<g>
		<g>
			<path fill="#FFFFFF" d="M2.536,13.854c0.565,0.032,1.908-0.236,2.072,0.673c0.027,0.148,0.244,0.242,0.367,0.149
				c4.602-3.439,7.767,0.827,8.136,5.338c0.049,0.605,0.741,6.565,0.089,6.715c-1.303,0.299-2.137,0.455-2.405-1.02
				c-0.21-1.157-0.287-2.336-0.458-3.499c-0.258-1.767-1.079-3.251-2.694-4.067c-2.434-1.23-3.305,2.819-3.425,4.304
				c-0.072,0.897,1.055,4.227-0.726,4.392c-1.668,0.155-1.295-2.993-1.268-4.049c0.078-3.012,0.654-5.974,0.592-8.995
				c-0.006-0.322-0.507-0.323-0.5,0c0.092,4.476-1.133,8.928-0.277,13.379c0.021,0.105,0.137,0.187,0.241,0.184
				c0.959-0.026,2.708,0.179,2.723-1.297c0.016-1.523-0.399-2.991-0.187-4.515c0.096-0.688,0.329-1.347,0.621-1.975
				c1.665-3.583,4.061,1.345,4.275,2.073c0.349,1.188-0.063,4.983,1.286,5.773c0.586,0.344,2.528-0.021,2.883-0.68
				c0.712-1.322-0.169-4.495-0.229-5.965c-0.096-2.353-0.41-4.617-2.066-6.394c-1.192-1.278-3.141-2.199-4.848-1.384
				c-0.836,0.399-1.38,1.174-2.08,0.475c-0.401-0.4-1.646-0.088-2.123-0.116C2.213,13.335,2.215,13.835,2.536,13.854L2.536,13.854z"
				/>
		</g>
	</g>
	<g>
		<g>
			<path fill="#FFFFFF" d="M5.611,19.488c0.975,0.101,2.594-0.127,2.732,1.544c0.035,0.423-0.097,0.873-0.027,1.291
				c0.307,1.819,0.729,3.614,0.942,5.448c0.021,0.175,0.143,0.266,0.316,0.241c0.57-0.081,0.845-0.229,1.251-0.635
				c0.228-0.229-0.125-0.582-0.354-0.354c-1.072,1.073-1.14-1.991-1.222-2.417c-0.264-1.355-0.33-2.643-0.442-4.006
				c-0.143-1.734-1.966-1.486-3.197-1.613C5.29,18.955,5.293,19.455,5.611,19.488L5.611,19.488z"/>
		</g>
	</g>
	<g>
		<g>
			<path fill="#FFFFFF" d="M9.521,28.013c0.722,0.112,1.497,0.351,2.233,0.256c0.665-0.087,1.139-0.589,1.544-1.081
				c0.203-0.247-0.148-0.603-0.354-0.354c-0.382,0.465-0.786,0.917-1.423,0.956c-0.613,0.038-1.266-0.166-1.868-0.26
				C9.338,27.481,9.203,27.963,9.521,28.013L9.521,28.013z"/>
		</g>
	</g>
	<g>
		<g>
			<path fill="#FFFFFF" d="M2.346,13.388c-2.427,1.445-2.025,2.11-2.025,5.161c0,2.968-0.947,6.975,0.414,9.729
				c0.062,0.126,0.228,0.149,0.342,0.09c0.577-0.304,0.977-0.588,1.381-1.084c0.202-0.248-0.15-0.604-0.354-0.354
				c-1.903,2.337-1.351-4.445-1.296-5.554c0.084-1.696,0.013-3.412,0.013-5.11c0-1.516,0.66-1.781,1.777-2.446
				C2.875,13.655,2.623,13.222,2.346,13.388L2.346,13.388z"/>
		</g>
	</g>
	<g>
		<g>
			<path fill="#FFFFFF" d="M1.141,28.401c1.416,0.002,2.99-0.03,3.458-1.636c0.09-0.311-0.392-0.441-0.482-0.133
				c-0.394,1.353-1.82,1.271-2.976,1.269C0.819,27.901,0.819,28.401,1.141,28.401L1.141,28.401z"/>
		</g>
	</g>
	<g>
		<g>
			<path fill="#FFFFFF" d="M27.23,15.905c-1.121-1.538-4.043-1.085-5.633-0.764c-2.465,0.499-2.727,3.572-2.652,5.597
				c0.086,2.338,2.057,4.252,4.263,4.656c0.966,0.177,1.868-0.196,2.659-0.703c1.153-0.739,0.543,0.04,1.351,0.749
				c0.666,0.585,3.63,0.715,4.022-0.317c0.446-1.178,0.202-2.688,0.256-3.923c0.055-1.236,0.184-2.464,0.166-3.703
				c-0.029-1.94,0.397-3.868-1.831-4.163c-1.702-0.226-3.216,0.789-3.091,2.556c0.022,0.319,0.523,0.322,0.5,0
				c-0.147-2.089,3.563-3.135,3.773-0.77c0.116,1.298,0.188,2.594,0.122,3.896c-0.075,1.463-0.178,2.92-0.212,4.386
				c-0.031,1.323-0.234,1.818-1.747,1.842c-1.315,0.021-1.961-0.586-2.326-1.719c-0.054-0.166-0.289-0.261-0.418-0.11
				c-3.104,3.619-7.039-0.051-7.001-3.748c0.019-1.887,0.717-3.722,2.737-4.131c1.203-0.243,3.812-0.5,4.63,0.622
				C26.987,16.415,27.421,16.166,27.23,15.905L27.23,15.905z"/>
		</g>
	</g>
	<g>
		<g>
			<path fill="#FFFFFF" d="M27.248,18.216c-1.47-0.209-3.118-0.661-4.566-0.132c-1.398,0.512-1.509,2.381-0.937,3.557
				c0.66,1.355,2.051,1.363,3.264,0.74c1.421-0.73,2.459-2.32,2.422-3.924c-0.007-0.322-0.507-0.322-0.5,0
				c0.031,1.35-0.75,2.51-1.819,3.274c-1.156,0.826-2.606,0.818-3.056-0.717c-1.007-3.439,3.133-2.59,5.058-2.316
				C27.43,18.743,27.566,18.261,27.248,18.216L27.248,18.216z"/>
		</g>
	</g>
	<g>
		<g>
			<path fill="#FFFFFF" d="M20.875,15.388c-2.821,1.605-3.619,5.867-2.607,8.755c0.466,1.331,1.748,2.104,3.023,2.482
				c0.646,0.192,1.424,0.221,2.082,0.116c0.577-0.092,2.087-0.847,2.236-0.326c0.041,0.143,0.234,0.248,0.367,0.149
				c0.523-0.387,1.018-0.748,1.636-0.985c0.298-0.114,0.169-0.598-0.133-0.482c-0.547,0.21-1.404,1.13-1.579,0.521
				c-0.045-0.157-0.226-0.229-0.367-0.149c-2.608,1.474-6.214,0.945-7.046-2.308c-0.631-2.466,0.376-6.053,2.64-7.341
				C21.408,15.66,21.156,15.228,20.875,15.388L20.875,15.388z"/>
		</g>
	</g>
	<g>
		<g>
			<path fill="#FFFFFF" d="M30.407,25.182c-0.65,0.36-1.172,0.946-1.862,1.229c-0.848,0.347-1.824-0.333-2.695-0.312
				c-0.322,0.008-0.323,0.508,0,0.5c0.881-0.021,1.707,0.571,2.598,0.351c0.865-0.214,1.451-0.913,2.211-1.336
				C30.941,25.457,30.688,25.024,30.407,25.182L30.407,25.182z"/>
		</g>
	</g>
	<g>
		<g>
			<path fill="#FFFFFF" d="M28.889,13.285c-1.167,0.114-4.099,0.076-3.539,1.99c0.09,0.309,0.573,0.178,0.482-0.133
				c-0.397-1.358,2.262-1.28,3.056-1.357C29.207,13.754,29.209,13.254,28.889,13.285L28.889,13.285z"/>
		</g>
	</g>
	<g>
		<g>
			<path fill="#FFFFFF" d="M22.143,19.372c0.723-0.026,1.497,0.044,2.069,0.533c0.594,0.508,0.618,1.354,0.532,2.069
				c-0.038,0.319,0.462,0.316,0.5,0c0.105-0.883-0.013-1.781-0.679-2.423c-0.629-0.605-1.594-0.71-2.423-0.68
				C21.821,18.884,21.82,19.384,22.143,19.372L22.143,19.372z"/>
		</g>
	</g>
</g>
</svg>
