<?xml version="1.0" encoding="utf-8"?>
<!-- Generator: Adobe Illustrator 16.0.0, SVG Export Plug-In . SVG Version: 6.00 Build 0)  -->
<!DOCTYPE svg PUBLIC "-//W3C//DTD SVG 1.1//EN" "http://www.w3.org/Graphics/SVG/1.1/DTD/svg11.dtd">
<svg version="1.1" id="Layer_1" xmlns="http://www.w3.org/2000/svg" xmlns:xlink="http://www.w3.org/1999/xlink" x="0px" y="0px"
	 width="41.615px" height="56.06px" viewBox="0 0 41.615 56.06" enable-background="new 0 0 41.615 56.06" xml:space="preserve">
<path fill="#363537" d="M39.243,16.372c0,0-0.054,0.056-0.148,0.152c-0.006-0.051-0.015-0.084-0.022-0.127
	c0.144-0.158,0.221-0.276,0.208-0.338c-0.191-0.912-16.917-4.562-19.533-4.5s-19.694,3.729-19.605,4.77H0.14
	c-0.834,0.46,2.286,31.147,3.328,32.866c1.043,1.719,17.051,6.885,18.125,6.864c1.073-0.021,13.838-4.583,14.438-6.015
	c0.057-0.136,0.127-0.436,0.205-0.848c0.066,0.114,0.106,0.182,0.106,0.182s0.132-1.181,0.337-3.081
	c0.733-5.475,1.756-15.638,2.224-22.664C39.188,20.076,39.345,17.304,39.243,16.372z"/>
<path fill="#D1D3D4" d="M2.474,14.103c-0.091-1.04,16.989-4.707,19.605-4.77s19.342,3.588,19.533,4.5S23.633,27.07,23.633,27.07
	S2.565,15.143,2.474,14.103z"/>
<path fill="#FFFFFF" d="M2.473,14.103c-0.834,0.46,2.286,31.147,3.328,32.866c1.043,1.719,17.051,6.885,18.125,6.864
	C25,53.812,37.764,49.25,38.364,47.818c0.804-1.919,3.962-33.523,2.912-33.985c-1.467-0.646-17.845,5.521-19.415,5.5
	S3.306,13.643,2.473,14.103z"/>
<path fill="none" stroke="#BCBEC0" stroke-miterlimit="10" d="M10.227,11.593c0,0-1.735-11.093,0.469-11.093
	s21.941,3.083,21.941,6.583s-0.25,17.579,0,17.912"/>
<path fill="#D1D3D4" d="M38.675,47.152c0,0,3.287-29.498,2.9-33.007c0,0-11.107,11.32-10.55,16.148
	C31.583,35.125,38.675,47.152,38.675,47.152z"/>
<path fill="#E6E7E8" d="M24.352,53.083c0,0-2.691-30.025-2.305-33.563c0,0,13.206,4.379,12.648,9.248
	C34.139,33.64,24.352,53.083,24.352,53.083z"/>
</svg>
