<?xml version="1.0" encoding="utf-8"?>
<!-- Generator: Adobe Illustrator 16.0.0, SVG Export Plug-In . SVG Version: 6.00 Build 0)  -->
<!DOCTYPE svg PUBLIC "-//W3C//DTD SVG 1.1//EN" "http://www.w3.org/Graphics/SVG/1.1/DTD/svg11.dtd">
<svg version="1.1" id="Layer_1" xmlns="http://www.w3.org/2000/svg" xmlns:xlink="http://www.w3.org/1999/xlink" x="0px" y="0px"
	 width="65.798px" height="63.371px" viewBox="0 0 65.798 63.371" enable-background="new 0 0 65.798 63.371" xml:space="preserve">
<g>
	<path fill="#363537" d="M57.638,32.81c0.013-0.206,0.023-0.416,0.035-0.626c0.547-4.514,0.219-10.07-1.704-15.213
		c-1.664-4.874-4.741-9.322-10.18-12.131c-0.16-0.09-0.33-0.172-0.495-0.259c-0.065-0.031-0.127-0.066-0.193-0.098
		c-3.647-1.866-8.218-2.993-13.92-2.984C7.029,1.534,1.765,24.783,3.546,31.767c0.062,0.241,0.16,0.474,0.277,0.703
		c-0.036,0-0.067,0.003-0.104,0.003c-7.513-0.015-1.076,0.991-2.514,5.431c-0.997,3.073,1.57,2.343,4.43,2.573
		c0.234,0.385,0.552,0.741,0.944,1.069l0.277,4.323c-4.51,1.369-2.299,10.745-2.299,10.745c0,4.294,22.839,6.734,27.911,6.734
		l2.238,0.022c6.99-0.706,23.693-3.52,23.693-7.813c0,0,1.71-8.074-2.373-9.653L55.89,41.09c1.308-0.834,0.14-3.254,5.244-5.087
		C64.659,34.737,62.027,33.741,57.638,32.81z"/>
	<g>
		<path fill="#E5AA25" d="M61.427,54.059c0,4.294-16.703,7.107-23.693,7.813l-2.238-0.022c-5.072,0-27.911-2.44-27.911-6.734
			c0,0-2.601-11.009,3.563-10.917h45.485C63.733,43.195,61.427,54.059,61.427,54.059z"/>
		<path fill="#5B4134" d="M59.061,44.631c0,3.801-15.226,5.158-21.601,5.783l0,0c-4.625,0-27.5-1.047-27.5-4.848l-0.375-5.841
			c0-3.801,0.173-3.822,3.625-3.822h41.479c3.453,0,4.205-0.852,4.205,2.949L59.061,44.631z"/>
		<path fill="#DB4526" d="M58.491,35.929c2,3.429-1.438,7.61-7.656,7.61l-16.094-0.525c-4.201,1.105-29.581,1.34-26.25-7.085l0,0
			c0-3.198,2.592-5.79,5.789-5.79h38.422C55.899,30.139,58.491,32.73,58.491,35.929L58.491,35.929z"/>
		<path fill="#7C993D" d="M47.382,28.713c7.469,1.91,23.581,3.348,16.777,5.791c-6.803,2.443-2.465,5.929-7.694,5.312
			c-5.225-0.619-8.16,2.958-10.28,0.513c-2.119-2.443-5.56-1.598-9.883-0.157c-4.314,1.441-5.511,3.58-11.325,1.757
			c-5.82-1.824-9.037,1.274-12.614-1.657c-3.574-2.929-9.571,0.572-8.131-3.867c1.438-4.439-4.999-5.445,2.514-5.431
			c7.514,0.01,9.957-3.771,13.375-2.464C23.537,29.812,47.382,28.713,47.382,28.713z"/>
		<path fill="#E5AA25" d="M6.571,30.268C4.79,23.284,10.055,0.035,34.206,0C58.243-0.037,62.363,19.941,60.57,31.636
			C59.335,39.693,9.085,40.12,6.571,30.268z"/>
		<path fill="#EEBB53" d="M34.543,0.271C30.396,0.237,26.75,0.814,23.546,1.83c2.588-0.594,5.428-0.92,8.561-0.896
			c25.773,0.21,26.978,20.566,26.028,32.363c-0.044,0.542-0.633,1.007-1.646,1.399c2.494-0.496,4.011-1.175,4.081-2.063
			C61.521,20.838,60.316,0.482,34.543,0.271z"/>
		<ellipse fill="#C38C2C" cx="34.412" cy="7.289" rx="1.083" ry="0.427"/>
		<ellipse fill="#C38C2C" cx="33.328" cy="16.95" rx="0.873" ry="0.533"/>
		<ellipse fill="#C38C2C" cx="23.546" cy="12.789" rx="0.873" ry="0.533"/>
		<ellipse fill="#C38C2C" cx="46.709" cy="25.947" rx="0.542" ry="0.789"/>
		
			<ellipse transform="matrix(0.8918 -0.4524 0.4524 0.8918 -9.3349 10.0454)" fill="#C38C2C" cx="16.334" cy="24.539" rx="1.084" ry="0.427"/>
	</g>
</g>
</svg>
