<?xml version="1.0" encoding="utf-8"?>
<!-- Generator: Adobe Illustrator 16.0.0, SVG Export Plug-In . SVG Version: 6.00 Build 0)  -->
<!DOCTYPE svg PUBLIC "-//W3C//DTD SVG 1.1//EN" "http://www.w3.org/Graphics/SVG/1.1/DTD/svg11.dtd">
<svg version="1.1" id="Layer_1" xmlns="http://www.w3.org/2000/svg" xmlns:xlink="http://www.w3.org/1999/xlink" x="0px" y="0px"
	 width="174.602px" height="125px" viewBox="0 0 174.602 125" enable-background="new 0 0 174.602 125" xml:space="preserve">
<g>
	<path fill="#363537" d="M86.675,2.073c-34.587,0-62.625,25.715-62.625,60.302S47.588,125,82.175,125
		c2.159,0,4.31-0.109,6.445-0.322c-0.526,0.074-1.05,0.158-1.578,0.22c32.71-2.471,62.258-29.463,62.258-62.421
		c0-0.019-0.001-0.036-0.001-0.055c0-0.016,0.001-0.031,0.001-0.047C149.3,27.788,121.262,2.073,86.675,2.073z"/>
	<path fill="#363537" d="M172.575,27.188c0.388-7.435-3.384-17.825-7.521-17.698c-2.611-0.229-5.405,3.647-7.414,15.08
		c-3.19,18.164-0.15,29.567,3.493,34.395c-0.223,2.328-0.806,26.718-0.928,32.011c-0.121,5.307-1.655,6.23-2.91,13.802
		c-1.257,7.567,0.631,8.925,5.196,8.782c0.025-0.001,0.049-0.003,0.074-0.004c0.075-0.001,0.14,0.005,0.217,0.002
		c4.564-0.141,6.51-1.267,5.371-8.728c-0.688-4.521-1.502-7.494-1.561-13.865c-0.053-5.688,0.913-26.816,1.375-31.068
		C172.233,54.526,171.105,55.402,172.575,27.188z"/>
	<path fill="#363537" d="M15.152,21.879c-0.022-0.293-0.575-0.514-1.45-0.67c-0.01,0.061-0.015,0.117-0.012,0.166
		c0,0.001,0,0.003,0,0.004v0.001c0,0.01,0.001,0.03,0.001,0.046c0.001,0.018,0.002,0.034,0.002,0.058
		c0,0.019,0.001,0.043,0.001,0.065c0.012,0.948-0.036,5.029-0.049,5.97c-0.012,1.018-0.232,11.269,0.161,12.324
		c0.51,1.367-0.307,1.926-1.087,1.866s-0.794-0.382-0.551-1.805c0.146-0.861,0.383-11.21,0.435-12.431
		c0.048-1.175,0.008-5.797-0.051-6.093c-0.016-0.078-0.07-0.2-0.137-0.336c-0.654-0.059-1.391-0.096-2.166-0.112
		c-0.029,0.126-0.051,0.243-0.045,0.334c0.023,0.426-0.032,5.127-0.045,6.145c-0.013,1.019-0.219,13.261,0.175,14.314
		c0.51,1.368,0.158,2.256-0.622,2.196s-1.217-0.518-0.974-1.939c0.146-0.861,0.327-13.396,0.378-14.616
		c0.048-1.174,0.009-5.797-0.051-6.092c-0.017-0.082-0.073-0.208-0.143-0.352c-0.812,0.007-1.64,0.034-2.439,0.079
		c-0.008,0.055-0.014,0.106-0.011,0.15c0.024,0.425-0.032,5.126-0.044,6.145C6.416,28.313,6.21,40.558,6.603,41.61
		c0.511,1.368,0.159,2.256-0.621,2.196s-1.216-0.519-0.974-1.939c0.146-0.861,0.326-13.396,0.378-14.616
		c0.049-1.175,0.008-5.797-0.051-6.093c-0.003-0.02-0.016-0.049-0.024-0.075c-0.699,0.059-1.355,0.132-1.941,0.221
		c-0.053,0.193-0.098,0.378-0.091,0.51c0.024,0.426-0.031,5.126-0.045,6.144c-0.012,1.018-0.23,11.269,0.161,12.324
		c0.51,1.367-0.308,1.926-1.087,1.866c-0.78-0.06-0.794-0.382-0.551-1.804c0.146-0.861,0.383-11.211,0.434-12.433
		c0.049-1.173,0.009-5.796-0.05-6.092c-0.014-0.062-0.052-0.153-0.099-0.256c-0.725,0.185-1.176,0.408-1.196,0.665
		c-1.582,18.881-1.229,25.076,3.521,26.751c0.259,0.741,0.53,1.467,0.651,2.072c0.354,1.763,0.592,29.339,0.3,36.346
		C5.017,94.679,4.075,98.042,3.2,103.181c-1.445,8.481,0.499,9.849,5.152,10.205c0.184,0.014,0.354,0.02,0.529,0.027
		c-0.012,0.001-0.022,0.003-0.034,0.004c0.057,0.003,0.108,0.001,0.164,0.003c0.132,0.005,0.262,0.007,0.389,0.008
		c0.128,0.001,0.255,0,0.378-0.003c0.131-0.004,0.258-0.011,0.383-0.019c0.111-0.008,0.221-0.019,0.328-0.03
		c0.124-0.014,0.245-0.031,0.363-0.052c0.098-0.017,0.193-0.037,0.287-0.059c0.116-0.026,0.229-0.056,0.339-0.09
		c0.087-0.026,0.171-0.058,0.253-0.089c0.105-0.041,0.209-0.084,0.309-0.133c0.076-0.037,0.149-0.08,0.222-0.123
		c0.095-0.056,0.188-0.114,0.276-0.179c0.067-0.05,0.13-0.105,0.193-0.161c0.082-0.072,0.165-0.146,0.24-0.229
		c0.059-0.063,0.112-0.135,0.167-0.204c0.07-0.09,0.141-0.181,0.204-0.281c0.05-0.079,0.095-0.167,0.14-0.252
		c0.059-0.108,0.116-0.216,0.168-0.336c0.041-0.096,0.076-0.203,0.113-0.307c0.045-0.127,0.091-0.252,0.13-0.392
		c0.032-0.115,0.058-0.244,0.086-0.369c0.032-0.146,0.066-0.287,0.093-0.445c0.023-0.14,0.039-0.295,0.058-0.444
		c0.021-0.163,0.043-0.321,0.058-0.496c0.014-0.168,0.019-0.354,0.026-0.532s0.021-0.351,0.022-0.541
		c0.003-0.201-0.004-0.423-0.007-0.637c-0.003-0.193-0.001-0.376-0.009-0.58c-0.01-0.236-0.029-0.496-0.045-0.748
		c-0.013-0.206-0.021-0.401-0.038-0.618c-0.02-0.245-0.051-0.515-0.076-0.773c-0.024-0.247-0.043-0.479-0.072-0.739
		c-0.994-8.707-2.522-9.828-2.447-15.897c0.062-4.935,0.294-24.378,0.303-32.852c0-0.324,0-0.632,0-0.923
		c-0.002-1.463-0.012-2.483-0.034-2.881c-0.039-0.727,0.122-1.501,0.316-2.251c2.707-1.404,3.743-4.954,3.756-12.21
		C15.889,32.754,15.615,27.937,15.152,21.879z"/>
</g>
<path fill="#7C993D" d="M151.3,60.302c0,34.587-32.538,62.625-67.125,62.625S26.05,94.889,26.05,60.302S54.088,0,88.675,0
	S151.3,25.715,151.3,60.302z"/>
<path fill="#97B254" d="M88.675,0.102c-2.655,0-5.265,0.169-7.833,0.465c1.705-0.129,3.425-0.211,5.166-0.211
	c34.587,0,62.625,25.715,62.625,60.302c0,32.06-27.96,58.476-59.591,62.167c32.71-2.471,62.258-29.463,62.258-62.421
	C151.3,25.816,123.262,0.102,88.675,0.102z"/>
<path fill="#97B254" d="M137.656,60.39c0,27.051-25.471,48.852-52.521,48.852S39.695,87.44,39.695,60.39
	c0-27.052,21.958-50.216,48.98-48.98C120.864,12.881,137.656,33.338,137.656,60.39z"/>
<path fill="#A7A9AC" d="M159.295,102.703c1.255-7.571,2.789-8.495,2.91-13.802c0.122-5.293,0.705-29.683,0.928-32.011
	c-3.644-4.827-6.684-16.23-3.493-34.395c5.101-29.034,15.268-9.356,14.644,2.62c-1.47,28.215-0.342,27.339-4.606,32.708
	c-0.462,4.252-1.428,25.38-1.375,31.068c0.059,6.371,0.872,9.344,1.561,13.865c1.139,7.461-0.807,8.587-5.371,8.728
	C159.926,111.628,158.039,110.271,159.295,102.703z"/>
<path fill="#D1D3D4" d="M174.575,25.114c0.406-7.797-3.761-18.854-8.127-17.612c3.822,1.063,7.115,10.641,6.752,17.612
	c-1.47,28.215-0.342,27.339-4.606,32.708c-0.462,4.252-1.428,25.38-1.375,31.068c0.059,6.371,0.872,9.344,1.561,13.865
	c1.123,7.359-0.76,8.553-5.19,8.719c0.377,0.017,0.771,0.022,1.194,0.009c4.564-0.141,6.51-1.267,5.371-8.728
	c-0.688-4.521-1.502-7.494-1.561-13.865c-0.053-5.688,0.913-26.816,1.375-31.068C174.233,52.453,173.105,53.329,174.575,25.114z"/>
<path fill="#A7A9AC" d="M15.989,101.494c-0.994-8.709-2.523-9.828-2.447-15.901c0.077-6.07,0.409-34.114,0.269-36.652
	c-0.04-0.728,0.122-1.504,0.316-2.255c4.124-2.14,4.371-9.26,3.025-26.88c-0.022-0.293-0.575-0.514-1.45-0.67
	c-0.01,0.061-0.015,0.117-0.012,0.166c0.023,0.425-0.031,5.126-0.045,6.144c-0.012,1.018-0.232,11.269,0.161,12.324
	c0.51,1.367-0.307,1.926-1.087,1.866s-0.794-0.382-0.551-1.805c0.146-0.861,0.383-11.21,0.435-12.431
	c0.048-1.175,0.008-5.797-0.051-6.093c-0.016-0.078-0.07-0.2-0.137-0.336c-0.654-0.059-1.391-0.096-2.166-0.112
	c-0.029,0.126-0.051,0.243-0.045,0.334c0.023,0.426-0.032,5.127-0.045,6.145c-0.013,1.019-0.219,13.261,0.175,14.314
	c0.51,1.368,0.158,2.256-0.622,2.196s-1.217-0.518-0.974-1.939c0.146-0.861,0.327-13.396,0.378-14.616
	c0.048-1.174,0.009-5.797-0.051-6.092c-0.017-0.082-0.073-0.208-0.143-0.352c-0.812,0.007-1.64,0.034-2.439,0.079
	c-0.008,0.055-0.014,0.106-0.011,0.15c0.024,0.425-0.032,5.126-0.044,6.145C8.416,26.24,8.21,38.484,8.603,39.537
	c0.511,1.368,0.159,2.256-0.621,2.196s-1.216-0.519-0.974-1.939c0.146-0.861,0.326-13.396,0.378-14.616
	c0.049-1.175,0.008-5.797-0.051-6.093c-0.003-0.02-0.016-0.049-0.024-0.075c-0.699,0.059-1.355,0.132-1.941,0.221
	c-0.053,0.193-0.098,0.378-0.091,0.51c0.024,0.426-0.031,5.126-0.045,6.144c-0.012,1.018-0.23,11.269,0.161,12.324
	c0.51,1.367-0.308,1.926-1.087,1.866c-0.78-0.06-0.794-0.382-0.551-1.804C3.904,37.409,4.14,27.06,4.191,25.838
	c0.049-1.173,0.009-5.796-0.05-6.092c-0.014-0.062-0.052-0.153-0.099-0.256c-0.725,0.185-1.176,0.408-1.196,0.665
	C1.264,39.036,1.617,45.231,6.368,46.906c0.259,0.741,0.53,1.467,0.651,2.072c0.354,1.763,0.592,29.339,0.3,36.346
	C7.017,92.605,6.075,95.969,5.2,101.107c-1.445,8.481,0.499,9.849,5.152,10.205C15.006,111.669,16.984,110.197,15.989,101.494z"/>
<path fill="#D1D3D4" d="M13.542,85.598c0.077-6.07,0.409-34.114,0.269-36.652c-0.04-0.728,0.122-1.504,0.316-2.255
	c4.124-2.14,4.371-9.26,3.025-26.88c-0.022-0.293-0.575-0.514-1.45-0.67c-0.01,0.061-0.015,0.117-0.012,0.166
	c0.002,0.04,0.004,0.129,0.005,0.239c0.115,0.082,0.199,0.168,0.207,0.265c1.346,17.62,1.099,24.74-3.025,26.88
	c-0.194,0.751-0.356,1.527-0.316,2.255c0.141,2.538-0.191,30.582-0.269,36.652c-0.076,6.073,1.453,7.192,2.447,15.901
	c0.859,7.52-0.504,9.637-3.892,9.845c4.293,0.206,6.101-1.462,5.142-9.845C14.995,92.79,13.465,91.671,13.542,85.598z"/>
</svg>
