<?xml version="1.0" encoding="utf-8"?>
<!-- Generator: Adobe Illustrator 16.0.0, SVG Export Plug-In . SVG Version: 6.00 Build 0)  -->
<!DOCTYPE svg PUBLIC "-//W3C//DTD SVG 1.1//EN" "http://www.w3.org/Graphics/SVG/1.1/DTD/svg11.dtd">
<svg version="1.1" id="Layer_1" xmlns="http://www.w3.org/2000/svg" xmlns:xlink="http://www.w3.org/1999/xlink" x="0px" y="0px"
	 width="109.042px" height="96.121px" viewBox="0 0 109.042 96.121" enable-background="new 0 0 109.042 96.121"
	 xml:space="preserve">
<g>
	<path fill="#363537" d="M104.593,32.334c0,0.015,0.033,0.054,0.041,0.075C104.613,32.25,104.598,32.194,104.593,32.334z"/>
	<path fill="#363537" d="M101.062,32.339c0,0.018,0.036,0.061,0.044,0.085C101.082,32.222,101.067,32.18,101.062,32.339z"/>
	<path fill="#363537" d="M106.114,52.56l-0.002-0.001c0.002,0.006,0.002,0.021,0.004,0.028
		C106.114,52.578,106.114,52.568,106.114,52.56z"/>
	<path fill="#363537" d="M79.135,25.268c-0.562-5.739-1.279-14.607-0.502-15.801c0.985-1.514,11.735-4.588,11.735-4.588
		s0.483-1.576,0.167-2.326c-0.299-0.705-10.304,3.759-13.381,4.901c-2.122,0.788-1.315,11.314-0.611,17.761
		c-3.784,0.071-10.311,0.651-14.425,2.208c0.652-3.295,1.425-6.269,2.149-7.352c0.148-0.226,0.294-0.444,0.422-0.605
		c1.048-1.315,1.276-4.781,0.837-5.155c-1.229-1.046-13.656-2.87-15.483-2.545c-1.855,0.328-18.636-0.106-23.403-0.679
		c-1.773-0.213-15.723,0.817-17.678,2.213c-0.53,0.379-0.526,1.166-0.192,2.598c0.225,0.962,0.421,2.13,0.592,3.438
		c0.239,4.489-0.481,11.124-1.44,15.321c-0.106,0.469-0.405,1.569-0.782,3.111H7.139c-0.008,0.035-0.017,0.076-0.025,0.111
		c-0.444,1.831-0.994,4.288-1.492,7.181c-0.663,3.64-1.229,7.778-1.276,11.96c0.003,0.002,0.007,0.002,0.01,0.003
		c-0.102,2.964-0.039,6.031,0.297,9.098c0.317,2.889-1.779,11.25-3.254,16.271c-0.248,0.378-0.497,0.743-0.756,1.076
		c-1.219,1.571-0.522,4.548,0.595,4.548c4.735,0,52.956,6.664,53.235,5.772c0.339-1.086,0.445-2.734,0.348-2.777
		c-0.229-3.628,0.164-12.537,0.37-13.189c0.074-0.236,0.156-0.53,0.239-0.849c0.017-0.061,0.031-0.118,0.048-0.182
		c0.084-0.318,0.169-0.674,0.26-1.062c0.02-0.08,0.037-0.164,0.057-0.247c0.094-0.409,0.188-0.844,0.291-1.314
		c0.01-0.052,0.021-0.109,0.032-0.164c0.101-0.472,0.202-0.976,0.307-1.504c0.012-0.058,0.021-0.109,0.033-0.167
		c0.111-0.566,0.227-1.163,0.341-1.783c0.014-0.07,0.026-0.141,0.04-0.213c0.373-2.011,0.762-4.271,1.141-6.663
		c0.002,0,0.002,0,0.002,0c0.024-0.154,0.05-0.316,0.074-0.472c0.005-0.029,0.01-0.059,0.015-0.088
		c0.003-0.018,0.005-0.036,0.008-0.054c0.002-0.017,0.005-0.033,0.009-0.049c0.211-1.332,0.42-2.711,0.618-4.128
		c0.003-0.023,0.007-0.046,0.01-0.069c0.002-0.018,0.005-0.036,0.008-0.052c0.002-0.015,0.004-0.03,0.005-0.043
		c0.005-0.039,0.012-0.079,0.017-0.118c0.002-0.013,0.005-0.028,0.007-0.041c0.002-0.017,0.005-0.033,0.007-0.049
		c0.595-4.201,1.115-8.506,1.444-12.334c0.143,2.012,0.297,4.154,0.461,6.383c-0.002,0-0.002-0.001-0.002-0.001
		c0.002,0.01,0.004,0.026,0.004,0.036c0.032,0.443,0.065,0.889,0.099,1.338c0.144,2.27,0.404,6.935,0.916,12.77
		c0.021,0.018,0.052,0.04,0.074,0.059c1.038,12.718,2.196,24.297,3.095,25.232c2.1,2.185,8.419,4.084,12.343,4.093
		c3.677,0.008,8.27,0.493,11.808-2.459l0,0c0,0,0,0,0.001-0.002c0.371-0.31,0.727-0.67,1.073-1.061
		c0.078-0.089,0.155-0.181,0.232-0.272c0.34-0.412,0.671-0.85,0.98-1.354c0.025-0.039,0.053-0.138,0.081-0.271
		c0.01-0.046,0.02-0.116,0.031-0.172c0.02-0.108,0.039-0.222,0.059-0.366c0.014-0.09,0.026-0.198,0.041-0.303
		c0.02-0.147,0.039-0.306,0.06-0.48c0.016-0.135,0.031-0.276,0.047-0.425c0.02-0.185,0.041-0.379,0.062-0.583
		c0.019-0.182,0.036-0.363,0.056-0.562c0.019-0.201,0.038-0.42,0.06-0.638c0.02-0.227,0.039-0.446,0.062-0.69
		c0.016-0.203,0.035-0.427,0.054-0.642c0.062-0.734,0.126-1.521,0.193-2.378c0-0.005,0.002-0.01,0.002-0.017
		c0.034-0.441,0.068-0.908,0.104-1.381c0.01-0.136,0.02-0.266,0.03-0.405c0.035-0.473,0.071-0.961,0.107-1.458
		c0.01-0.156,0.023-0.309,0.033-0.464c0.034-0.48,0.069-0.968,0.104-1.468c0.016-0.209,0.03-0.42,0.045-0.634
		c0.034-0.5,0.068-1.005,0.104-1.521c0.012-0.184,0.024-0.371,0.038-0.557c0.036-0.533,0.072-1.067,0.108-1.615
		c0.02-0.285,0.039-0.577,0.058-0.866c0.037-0.549,0.073-1.101,0.109-1.661c0.046-0.709,0.092-1.424,0.14-2.147
		c0.007-0.104,0.013-0.211,0.02-0.318c0.038-0.595,0.077-1.192,0.115-1.795c0.032-0.049,0.075-0.102,0.106-0.149
		c0.129-2.427,0.246-4.658,0.348-6.618c0.082-1.578,0.154-2.97,0.213-4.131c0.236-3.945,0.458-7.747,0.651-11.124
		c0.018-0.316,0.036-0.617,0.054-0.925c0.017-0.302,0.035-0.613,0.053-0.908c0.031-0.574,0.062-1.127,0.094-1.668
		c0.012-0.18,0.021-0.364,0.031-0.54c0.09-1.584,0.169-2.998,0.237-4.217c0.287-0.287,0.564-0.587,0.818-0.92
		c0,0-0.157-2.46,0.041-2.992c0.045-0.118,0.038-0.229,0.064-0.346c0.015-0.07,0.029-0.143,0.037-0.211
		C96.469,28.251,85.366,25.673,79.135,25.268z"/>
	<path fill="#363537" d="M60.621,52.559c0,0.006,0.002,0.021,0.004,0.028c0-0.008-0.002-0.018-0.002-0.026
		C60.621,52.56,60.621,52.559,60.621,52.559z"/>
</g>
<path fill="#DBC035" d="M68.453,11.833c0.439,0.374,0.212,3.839-0.837,5.155c-5.058,6.339-25.393,64.79-9.87,71.546
	c0.099,0.042-0.008,1.69-0.348,2.776c-0.279,0.893-48.5-5.771-53.235-5.771c-1.117,0-1.814-2.978-0.595-4.549
	c9.661-12.457,11.004-55.283,8.128-67.571c-0.334-1.432-0.337-2.219,0.192-2.598c1.955-1.396,15.905-2.426,17.678-2.212
	c4.768,0.572,21.549,1.007,23.403,0.679C54.796,8.963,67.224,10.787,68.453,11.833z"/>
<path fill="#F2CF24" d="M67.296,17.428c-1.745,2.188-3.832,16.072-3.801,18.596c0.123,10.437-3.824,34.367-5.379,39.32
	c-0.207,0.652-0.599,9.562-0.371,13.19c0.116,1.871-54.53-5.026-53.935-6.924c1.434-4.566,4.124-14.724,3.768-17.968
	C5.978,49.07,10.36,34.318,10.849,32.178c1.191-5.212,2.016-14.186,1.091-18.138c-0.118-0.508,14.633-0.507,16.244,0.074
	c2.892,1.043,20.779,0.474,23.049,1.16C54.504,16.26,67.702,16.921,67.296,17.428z"/>
<path fill="#296885" d="M10.064,35.289c-1.012,4.522-2.708,11.846-2.793,19.252c10.649,3.873,46.248,7.824,53.634,6.656
	c1.055-6.441,1.971-14.322,2.442-20.443C50.831,40.925,26.82,39.068,10.064,35.289z"/>
<path fill="#FFFFFF" d="M52.343,44.668c0,9.616-8.434,20.164-17.716,20.164c-9.28,0-16.805-6.103-16.805-15.719
	c0-9.618,4.3-14.74,13.059-17.811C40.862,27.802,52.343,35.05,52.343,44.668z"/>
<path fill="#F9DA57" d="M67.296,17.428c0.17-0.213-2.065-0.453-4.948-0.733c-1.667,3.334-3.5,15.69-3.471,18.057
	c0.02,1.686-0.067,3.726-0.233,5.98c1.693,0.033,3.28,0.042,4.704,0.023c0.108-1.758,0.164-3.362,0.147-4.73
	C63.464,33.5,65.551,19.616,67.296,17.428z"/>
<path fill="#548CA0" d="M58.644,40.731c-0.456,6.209-1.51,14.048-2.596,20.664c2.101,0.03,3.783-0.029,4.856-0.198
	c0.026-0.158,0.051-0.313,0.075-0.472c0.008-0.048,0.015-0.095,0.022-0.143c0.217-1.386,0.432-2.81,0.637-4.246
	c0.004-0.033,0.01-0.064,0.014-0.095c0.008-0.054,0.015-0.106,0.022-0.159c0.719-5.188,1.317-10.722,1.67-15.286
	c0-0.013,0.002-0.028,0.003-0.041C61.924,40.774,60.337,40.764,58.644,40.731z"/>
<path fill="#F9DA57" d="M60.905,61.197c-1.073,0.169-2.756,0.228-4.856,0.198c-0.048,0.295-0.097,0.576-0.146,0.866
	c0.046,0.001,0.102,0.005,0.146,0.005c-0.958,6.584-1.939,12.091-2.551,14.286c-0.138,0.491-0.357,5.144-0.422,9.395
	c0.012,0.482,0.026,0.934,0.051,1.313c0.002,0.033-0.034,0.061-0.065,0.087c-0.003,0.49-0.003,0.965,0,1.421
	c2.923,0.155,4.706,0.104,4.685-0.234c-0.228-3.629,0.164-12.538,0.371-13.19C58.779,73.234,59.875,67.681,60.905,61.197z"/>
<path fill="#DB4526" d="M67.774,89.517c2.099,2.185,8.419,4.084,12.342,4.092c4.538,0.01,10.471,0.75,14.096-5.146
	c0.843-1.371,3.966-58.702,3.966-58.702s-1.888,4.55-8.083,5.908c-5.8,1.271-11.521,1.996-18.369-0.419
	c-6.689-2.36-9.671-4.972-9.657-5.393C62.155,27.042,65.674,87.331,67.774,89.517z"/>
<g>
	<path fill="#F2CF24" d="M63.747,50.082c0,0.015,0.031,0.054,0.038,0.075C63.765,49.998,63.751,49.942,63.747,50.082z"/>
	<path fill="#F2CF24" d="M72.638,68.619c6.305,2.416,11.574,1.69,16.913,0.42c3.694-0.879,5.718-3.092,6.69-4.545
		c0.442-8.332,0.753-14.507,0.753-14.507s-1.738,4.55-7.443,5.908c-5.339,1.271-10.608,1.996-16.913-0.42
		c-5.931-2.273-8.868-4.837-9.052-5.395c0.109,0.922,0.353,6.549,1.019,14.145C65.885,65.301,68.579,67.062,72.638,68.619z"/>
</g>
<path fill="#DB4526" d="M107.519,29.855c0,0.015,0.033,0.054,0.041,0.075C107.54,29.772,107.524,29.716,107.519,29.855z"/>
<path fill="#F26851" d="M93.722,67.118c-0.692,11.197-1.386,21.238-1.799,24.031c0.828-0.691,1.601-1.569,2.288-2.688
	c0.362-0.591,1.146-11.539,1.924-23.819C95.619,65.386,94.839,66.29,93.722,67.118z"/>
<path fill="#F26851" d="M96.995,49.987c0,0-0.07,1.404-0.192,3.757c0.76-12.685,1.375-23.984,1.375-23.984s-0.669,1.589-2.488,3.17
	c-0.223,4.125-0.646,11.832-1.142,20.373C96.341,51.676,96.995,49.987,96.995,49.987z"/>
<path fill="#F2CF24" d="M96.802,53.744c-0.215,3.599-0.44,7.302-0.667,10.899c0.032-0.049,0.075-0.102,0.106-0.149
	C96.474,60.118,96.669,56.347,96.802,53.744z"/>
<path fill="#F9DB5D" d="M96.995,49.987c0,0-0.653,1.689-2.447,3.316c-0.263,4.52-0.543,9.255-0.825,13.815
	c1.117-0.828,1.896-1.732,2.413-2.475c0.227-3.597,0.452-7.3,0.667-10.899C96.924,51.391,96.995,49.987,96.995,49.987z"/>
<path fill="#DB4526" d="M103.988,29.86c0,0.018,0.036,0.061,0.045,0.085C104.008,29.744,103.993,29.701,103.988,29.86z"/>
<path fill="#DB4526" d="M109.039,50.08c0.001,0.007,0.001,0.021,0.003,0.028c-0.002-0.008-0.002-0.018-0.002-0.026L109.039,50.08z"
	/>
<path fill="#BCBEC0" d="M61.571,29.506l-0.053,2.886c0,0,7.023,5.026,18.981,5.406c8.258,0.262,14.812,0.126,18.242-4.356
	c0,0-0.158-2.46,0.041-2.992c1.763-4.715-11.701-7.571-17.846-7.715C75.723,22.612,58.999,23.943,61.571,29.506z"/>
<path fill="#D1D3D4" d="M76.463,27.981l-0.012,0.877c0,0,1.653,1.523,4.468,1.642c1.945,0.077,3.488,0.036,4.296-1.324
	c0,0-0.038-0.746,0.01-0.909c0.415-1.432-2.756-2.299-4.202-2.342C79.795,25.89,75.858,26.292,76.463,27.981z"/>
<path fill="#E6E7E8" d="M85.19,27.702c-0.001,0.08-0.001,0.149,0.009,0.185c0.31,1.475-2.908,1.965-4.354,1.839
	c-1.046-0.094-4.043-0.742-4.437-1.932c0.01,0.061,0.024,0.123,0.046,0.187l-0.011,0.877c0,0,1.652,1.523,4.468,1.642
	c1.946,0.077,3.488,0.036,4.297-1.324c0,0-0.038-0.746,0.01-0.909C85.277,28.068,85.259,27.881,85.19,27.702z"/>
<path fill="#E6E7E8" d="M80.082,27.702c0,0-3.075-21.586,0-22.726c3.076-1.142,13.082-5.606,13.38-4.901
	c0.316,0.75-0.167,2.326-0.167,2.326s-10.75,3.074-11.735,4.587c-1.161,1.785,1.017,20.714,1.017,20.714"/>
<path fill="#F2CF24" d="M63.546,50.08c0,0.007,0.002,0.021,0.004,0.028c0-0.008-0.002-0.018-0.002-0.026
	C63.546,50.082,63.546,50.08,63.546,50.08z"/>
<path fill="#E6E7E8" d="M98.639,28.591c-0.008,0.261-0.005,0.485,0.028,0.607c1.325,4.858-12.346,6.472-18.475,6.056
	c-4.45-0.305-17.176-2.438-18.853-6.366c0.045,0.202,0.105,0.405,0.204,0.619l-0.053,2.886c0,0,7.023,5.026,18.981,5.406
	c8.258,0.262,14.812,0.126,18.242-4.356c0,0-0.158-2.46,0.041-2.992C99.002,29.792,98.926,29.175,98.639,28.591z"/>
</svg>
