<?xml version="1.0" encoding="utf-8"?>
<!-- Generator: Adobe Illustrator 16.0.0, SVG Export Plug-In . SVG Version: 6.00 Build 0)  -->
<!DOCTYPE svg PUBLIC "-//W3C//DTD SVG 1.1//EN" "http://www.w3.org/Graphics/SVG/1.1/DTD/svg11.dtd">
<svg version="1.1" id="Layer_1" xmlns="http://www.w3.org/2000/svg" xmlns:xlink="http://www.w3.org/1999/xlink" x="0px" y="0px"
	 width="55.365px" height="99.784px" viewBox="0 0 55.365 99.784" enable-background="new 0 0 55.365 99.784" xml:space="preserve">
<path fill="#363537" d="M50.902,31.554c2.263-0.845,2.473-2.682-2.711-3.644c0.013-0.103,0.022-0.208,0.034-0.312
	c0.027-0.016,0.057-0.028,0.084-0.044c0.346-3.272,0.185-7.141-0.847-10.824C45.474,9.393,40.072,2.729,28.39,2.889
	C10.343,3.135,5.872,22.206,7.108,27.725c-1.264,0.188-3.531,1.368-4.658,2.214c-2.519,1.889-3.012,3.291-1.861,3.942
	c1.102,0.623,6.624-0.657,7.062,3.12c0.084,0.725,0.472,0.974,1.074,0.952c-1.271,3.748-1.496,7.269-1.063,9.155
	c-1.232,0.18-3.944,1.542-5.044,2.348c-2.455,1.801-0.786,4.588,0.336,5.208c1.073,0.595,5.048-2.834,5.475,0.767
	c0.234,1.973,1.765-0.058,3.96-1.391c1.864,7.543,11.26,44.944,14.459,45.732c0.104,0.025,0.221,0.005,0.347-0.053
	c0.035,0.017,0.072,0.044,0.105,0.053c2.812,0.691,13.612-29.612,16.146-42.933c1.398,0.247,2.447-0.111,2.607-1.749
	c0.262-2.672,1.028-1.029,3.804-4.096c1.576-1.741,2.411-2.556-2.643-3.473c0.155-1.212,0.233-2.522,0.217-3.882
	c0.128-2.233-0.042-4.627-0.644-6.959c0.094-0.25,0.169-0.522,0.214-0.831C47.398,33.087,46.358,33.251,50.902,31.554z"/>
<path fill="#C38C2C" d="M15.008,49.83c0,0,11.226,46.18,14.784,47.056s19.91-47.887,16.114-49.055"/>
<path fill="#EEBB53" d="M46.359,47.831l-2.339,0.151c2.567,2.8-9.754,40.446-14.865,47.703c0.412,0.7,0.781,1.124,1.09,1.2
	C33.803,97.762,50.154,48.999,46.359,47.831z"/>
<path fill="#5B4134" d="M50.159,44.636c1.185-9.236-1.965-24.078-19.305-23.847C13.259,21.022,9.401,38.961,10.607,44.222
	c-1.232,0.18-3.944,1.542-5.044,2.348c-2.455,1.801-0.786,4.588,0.336,5.208c1.073,0.595,5.048-2.834,5.475,0.767
	c0.413,3.485,4.869-5.52,9.892-1.109c1.045,0.918,11.17,4.312,13.2,2.631c2.966-2.456,1.962-4.201,4.501-3.273
	c2.848,1.04,9.603,5.785,10.031,1.412c0.262-2.671,1.028-1.029,3.804-4.095C54.377,46.367,55.212,45.554,50.159,44.636z"/>
<path fill="#725B51" d="M36.665,21.352c10.648,3.966,12.125,14.663,10.737,21.854c-8.211,3.326-18.682,3.982-24.961,2.907
	c-1.271-0.218-2.893-0.595-4.733-1.114c2.914,0.94,5.472,1.579,7.311,1.894c6.279,1.075,16.749,0.419,24.961-2.907
	C51.472,36.25,49.652,24.458,36.665,21.352z"/>
<path fill="#F48470" d="M51.136,25.023c1.216-9.691-2.016-25.264-19.801-25.021C13.289,0.248,8.817,19.319,10.053,24.839
	c-1.264,0.188-3.531,1.367-4.658,2.214c-2.519,1.889-3.012,3.291-1.861,3.941c1.102,0.624,6.624-0.656,7.062,3.121
	c0.424,3.656,8.519-4.663,13.687-0.055c5.311,4.735,5.64,2.847,8.651-0.01c2.896-2.747,6.149-2.777,8.006-0.637
	c1.857,2.142,8.35,4.111,9.006-0.449c0.397-2.765-0.643-2.6,3.901-4.297C56.11,27.822,56.32,25.985,51.136,25.023z"/>
<path fill="#F29F94" d="M36.316,0.589c10.911,3.539,13.168,15.312,12.311,23.424c-7.944,4.37-18.339,5.956-24.681,5.275
	c-1.284-0.14-2.928-0.426-4.802-0.854c2.975,0.807,5.573,1.309,7.43,1.51c6.342,0.681,16.736-0.905,24.681-5.276
	C52.176,15.944,49.497,2.981,36.316,0.589z"/>
</svg>
