<?xml version="1.0" encoding="utf-8"?>
<!-- Generator: Adobe Illustrator 16.0.0, SVG Export Plug-In . SVG Version: 6.00 Build 0)  -->
<!DOCTYPE svg PUBLIC "-//W3C//DTD SVG 1.1//EN" "http://www.w3.org/Graphics/SVG/1.1/DTD/svg11.dtd">
<svg version="1.1" id="Layer_1" xmlns="http://www.w3.org/2000/svg" xmlns:xlink="http://www.w3.org/1999/xlink" x="0px" y="0px"
	 width="80.274px" height="41.225px" viewBox="0 0 80.274 41.225" enable-background="new 0 0 80.274 41.225" xml:space="preserve">
<g>
	<path fill="#363537" d="M79.158,31.334c0.037-0.055,0.08-0.118,0.128-0.189l-0.104-0.133c0.135-1.994-1.146-2.008-2.776-4.791
		c-1.592-2.718-11.24-6.496-11.24-6.496c-1.127-0.143-1.824-0.054-2.302,0.19c-2.756-1.383-5.415-2.427-5.415-2.427
		c-2.474-0.313-2.906,0.473-3.392,1.637c0.867-3.636,0.927-6.866,0.429-8.821c-0.06-0.234-0.116-0.711-0.231-0.808
		C50.716-0.017,1.588,0.489,0.366,8.456c-0.239,1.557-0.368,3.263-0.364,5.047c-0.12,11.671,5.633,27.055,26.729,27.022
		c1.99-0.003,3.84-0.177,5.58-0.473c-0.108,0.037-0.213,0.08-0.322,0.116c10.057-1.56,16.125-7.599,19.448-14.004
		c-0.4,1.451-0.65,3.092-1.201,4.101c-0.317,0.583-1.56,2.785-2.391,4.767c0.027-0.089,0.054-0.178,0.085-0.27
		c-0.208,0.499-0.387,0.986-0.53,1.442c-0.29,0.87-0.424,1.602-0.251,1.994c0.038,0.115,0.089,0.214,0.169,0.276
		c1.151,0.893,3.655,0.479,5.658-0.158c0.872-0.277,1.672-0.516,2.447-0.759c-0.116,0.305-0.218,0.6-0.307,0.884
		c-0.291,0.87-0.424,1.602-0.251,1.993c0.038,0.115,0.09,0.214,0.17,0.276c1.15,0.892,3.654,0.478,5.658-0.159
		s3.657-1.063,5.409-1.846c2.049-0.912,2.608-2.208,3.903-2.624c1.291-0.419,4.51-2.714,5.587-2.515
		c1.08,0.199,0.672,0.446,2.184-0.989c0.721-0.686,0.921-0.782,1.019-0.822C79.086,31.702,79.115,31.839,79.158,31.334z"/>
	<path fill="#5D7332" d="M55.354,7.405c1.781,6.983-3.483,30.232-27.635,30.268C3.682,37.71-0.438,17.731,1.354,6.037
		C2.59-2.021,52.84-2.447,55.354,7.405z"/>
	<path fill="#C38C2C" d="M17.29,20.464c-6.404-2.978-19.836-5.458-14.601-8.896C7.924,8.13,3.863,2.905,8.244,3.932
		c4.379,1.029,6.275-4.163,8.365-0.518c2.09,3.639,4.793,2.475,8.137,0.456c3.336-2.022,4.01-5.141,9.044-2.328
		c5.041,2.815,7.238-1.666,10.593,2.724c3.354,4.389,7.775-0.621,7.229,5.873c-0.544,6.495,4.884,8.119-1.286,7.926
		c-6.169-0.185-7.633,5.32-10.626,3.318C36.708,19.391,17.29,20.464,17.29,20.464z"/>
	<path fill="#DB4526" d="M16.282,5.079c1.609,0.661-0.521,2.815-2.653,3.473c-2.99,0.923-4.844-0.709-4.502-1.877
		c0.912-3.114,0.963-1.829,1.856-2.448C12.006,3.52,14.21,4.227,16.282,5.079z"/>
	<path fill="#DB4526" d="M26.087,9.814c0.95,0.391-0.308,1.663-1.567,2.052c-1.766,0.545-2.861-0.419-2.659-1.108
		c0.539-1.84,0.569-1.081,1.097-1.446C23.561,8.894,24.863,9.312,26.087,9.814z"/>
	<path fill="#DB4526" d="M38.6,9.21c-1.576,0.386-1.153-2.407,0.094-4.075c1.746-2.336,4.041-2.124,4.424-1.057
		c1.021,2.85,0.277,1.909-0.056,2.865C42.68,8.038,40.629,8.715,38.6,9.21z"/>
	<path fill="#E0AC59" d="M80.17,28.625c-0.104,1.376,0,0-1.506,1.439c-1.505,1.44-1.099,1.191-2.175,0.994
		c-1.075-0.2-4.28,2.101-5.569,2.52c-1.288,0.419-1.847,1.719-3.889,2.634c-1.746,0.784-3.395,1.212-5.392,1.849
		c-1.997,0.64-4.491,1.056-5.638,0.162c-1.147-0.892,2.373-7.099,2.939-8.14c0.705-1.293,0.913-3.627,1.583-5.263
		c0.998-2.438,0.721-2.909,1.688-4.669c0.97-1.762,0.678-3.26,3.942-2.846c0,0,9.648,3.778,11.24,6.496
		C79.034,26.601,80.321,26.597,80.17,28.625z"/>
	<path fill="#F9D498" d="M79.214,28.977c-1.51,1.437-1.104,1.189-2.184,0.99c-1.076-0.199-4.294,2.096-5.587,2.514
		c-1.293,0.419-1.854,1.712-3.902,2.625c-1.751,0.783-3.405,1.208-5.409,1.846c-2.005,0.637-4.507,1.051-5.658,0.159
		c-0.4-0.31-0.245-1.319,0.162-2.531c-0.708,1.697-1.136,3.308-0.611,3.714c1.15,0.892,3.654,0.478,5.658-0.159
		s3.657-1.063,5.409-1.846c2.049-0.912,2.608-2.208,3.903-2.624c1.291-0.419,4.51-2.714,5.587-2.515
		c1.08,0.199,0.672,0.446,2.184-0.989c1.509-1.435,0.742-0.296,1.509-1.435l-0.313-0.403C79.808,28.438,79.577,28.63,79.214,28.977z
		"/>
	<path fill="#EEBB53" d="M72.453,26.39c-0.104,1.375,0,0-1.506,1.438c-1.505,1.44-1.1,1.192-2.175,0.994
		c-1.075-0.2-4.281,2.102-5.569,2.52c-1.289,0.419-1.847,1.72-3.889,2.635c-1.746,0.784-3.395,1.211-5.392,1.849
		c-1.997,0.64-4.491,1.055-5.638,0.162c-1.147-0.893,2.373-7.099,2.939-8.141c0.705-1.293,0.913-3.626,1.583-5.263
		c0.998-2.438,0.721-2.909,1.688-4.669c0.97-1.761,0.678-3.259,3.942-2.846c0,0,9.648,3.778,11.24,6.497
		C71.317,24.364,72.604,24.361,72.453,26.39z"/>
	<path fill="#F9D498" d="M71.497,26.741c-1.511,1.436-1.104,1.188-2.184,0.989c-1.076-0.198-4.294,2.096-5.587,2.514
		c-1.293,0.419-1.854,1.713-3.903,2.626c-1.751,0.782-3.404,1.208-5.408,1.845c-2.005,0.638-4.507,1.051-5.658,0.16
		c-0.4-0.31-0.245-1.319,0.162-2.531c-0.708,1.697-1.136,3.307-0.612,3.713c1.151,0.893,3.655,0.479,5.658-0.158
		c2.005-0.638,3.658-1.063,5.41-1.846c2.049-0.912,2.608-2.208,3.903-2.624c1.291-0.419,4.509-2.715,5.587-2.516
		c1.079,0.2,0.672,0.446,2.184-0.989c1.509-1.435,0.741-0.295,1.509-1.435l-0.313-0.403C72.091,26.201,71.86,26.395,71.497,26.741z"
		/>
	<path fill="#7C993D" d="M55.354,7.839c1.781,6.983-3.483,30.232-27.635,30.268C3.683,38.144-0.438,18.165,1.355,6.471
		C1.4,6.18,1.505,5.357,1.679,5.626c10.053,15.479,39.877,15.479,53.339,1.417C55.209,6.843,55.279,7.542,55.354,7.839z"/>
	<path fill="#97B254" d="M55.475,7.885c-0.075-0.297-0.146-0.996-0.337-0.796c-0.594,0.62-1.229,1.203-1.884,1.769
		c-0.889,9.361-6.377,24.273-20.276,28.893C52.732,34.687,57.121,14.341,55.475,7.885z"/>
</g>
</svg>
