<?xml version="1.0" encoding="utf-8"?>
<!-- Generator: Adobe Illustrator 16.0.0, SVG Export Plug-In . SVG Version: 6.00 Build 0)  -->
<!DOCTYPE svg PUBLIC "-//W3C//DTD SVG 1.1//EN" "http://www.w3.org/Graphics/SVG/1.1/DTD/svg11.dtd">
<svg version="1.1" id="Layer_1" xmlns="http://www.w3.org/2000/svg" xmlns:xlink="http://www.w3.org/1999/xlink" x="0px" y="0px"
	 width="200.837px" height="44px" viewBox="0 0 200.837 44" enable-background="new 0 0 200.837 44" xml:space="preserve">
<g>
	<g>
		<g>
			<path fill="#FFFFFF" d="M23.958,11.585c-5.97,1.242-4.122-4.395-8.003-5.523c-2.89-0.84-4.374,4.409-4.473,6.125
				c-0.171,2.974,0.65,6.364,4.17,5.755c2.456-0.425,5.545,1.873,1.994,2.895c-1.126,0.324-2.301,0.508-3.449,0.736
				c-1.373,0.272-2.869,0.498-3.958,1.436c-2.583,2.225,0.214,10.223,0.78,12.762c0.412,1.849,0.591,2.142-1.191,3.032
				c-1.472,0.735-1.162-0.683-1.52-1.967c-0.862-3.087-1.586-6.206-2.19-9.354C4.846,20.856,3.936,12.775,7.718,6.783
				c2.194-3.477,7.151-5.08,11.01-5.381c6.332-0.495,4.865,6.872,4.771,10.787c-0.02,0.807,1.231,0.805,1.25,0
				c0.106-4.461,1.541-10.13-3.712-11.823c-4.499-1.45-10.668,1.673-13.678,4.853c-7.824,8.267-2.141,25.506,0.539,34.749
				c0.078,0.268,0.322,0.459,0.603,0.459c1.476,0,2.644-0.886,3.949-1.538c0.27-0.136,0.326-0.439,0.287-0.706
				c-0.488-3.33-1.453-6.563-1.901-9.905c-0.594-4.422,1.959-5.148,5.444-5.846c2.057-0.412,6.285-1.225,4.582-4.149
				c-0.776-1.333-2.417-1.755-3.826-1.824c-2.074-0.102-3.863,2.334-4.371-3.104c-0.092-0.991,2.046-8.564,4.149-4.791
				c1.839,3.3,3.43,5.07,7.477,4.228C25.08,12.626,24.745,11.421,23.958,11.585L23.958,11.585z"/>
		</g>
	</g>
	<g>
		<g>
			<path fill="#FFFFFF" d="M23.924,11.591c-0.843,0.296-1.623,0.672-2.417,1.082c-1.757,0.906-3.052-0.782-4.224-1.835
				c-1.355-1.219-2.896-1.948-4.727-1.893c-0.804,0.024-0.807,1.274,0,1.25c1.83-0.055,3.052,0.815,4.357,1.989
				c0.708,0.637,1.39,1.611,2.341,1.916c1.863,0.596,3.304-0.707,5.001-1.303C25.012,12.531,24.687,11.323,23.924,11.591
				L23.924,11.591z"/>
		</g>
	</g>
	<g>
		<g>
			<path fill="#FFFFFF" d="M19.323,20.103c-2.566,2.851-5.422,4.609-9.171,5.471c-0.786,0.181-0.453,1.386,0.332,1.205
				c3.942-0.906,7.024-2.793,9.723-5.792C20.745,20.389,19.864,19.502,19.323,20.103L19.323,20.103z"/>
		</g>
	</g>
	<g>
		<g>
			<path fill="#FFFFFF" d="M17.584,0.147C10.218,0.329,3.147,3.025,0.813,10.569c-1.575,5.089-0.512,10.818,0.27,15.949
				c0.865,5.674,1.408,11.098,4.335,16.143c0.206,0.355,0.691,0.402,0.981,0.127c0.872-0.829,1.672-1.716,2.543-2.544
				c0.585-0.557-0.3-1.439-0.884-0.885c-0.659,0.628-1.592,2.618-2.44,1.156c-1.331-2.295-1.861-5.011-2.341-7.581
				c-0.826-4.423-1.438-9.007-1.849-13.479C0.979,14.556,1.572,9.366,5.022,5.646c3.085-3.327,8.283-4.144,12.562-4.249
				C18.389,1.377,18.391,0.127,17.584,0.147L17.584,0.147z"/>
		</g>
	</g>
	<g>
		<g>
			<path fill="#FFFFFF" d="M11.42,38.39c-0.261,0.681-0.928,1.243-1.433,1.743c-0.532,0.527-1.103,1.024-1.582,1.603
				c-0.51,0.616,0.369,1.506,0.884,0.885c1.072-1.295,2.716-2.277,3.335-3.898C12.914,37.968,11.705,37.645,11.42,38.39L11.42,38.39
				z"/>
		</g>
	</g>
	<g>
		<g>
			<path fill="#FFFFFF" d="M5.958,42.97c1.032,0,2.034-0.046,3.057-0.189c0.795-0.111,0.456-1.315-0.332-1.205
				c-0.908,0.127-1.809,0.145-2.725,0.145C5.151,41.72,5.151,42.97,5.958,42.97L5.958,42.97z"/>
		</g>
	</g>
	<g>
		<g>
			<path fill="#FFFFFF" d="M35.519,21.656c-3.145,1.568-4.81,4.533-4.263,8.03c0.431,2.754,2.735,5.158,5.62,4.953
				c7.726-0.55,6.422-13.148-1.042-13.068c-0.806,0.009-0.807,1.259,0,1.25c6.346-0.068,6.884,10.708,0.331,10.588
				c-2.309-0.043-3.583-2.689-3.778-4.651c-0.271-2.716,1.442-4.865,3.763-6.022C36.872,22.376,36.238,21.298,35.519,21.656
				L35.519,21.656z"/>
		</g>
	</g>
	<g>
		<g>
			<path fill="#FFFFFF" d="M30.843,16.597c-4.233,5.227-7.814,13.292-3.902,19.678c2.7,4.408,10.332,4.753,14.533,2.975
				c5.412-2.291,6.949-10.687,5.876-15.721c-1.491-6.994-9.074-7.712-14.851-7.722c-0.806-0.001-0.806,1.249,0,1.25
				c5.051,0.008,9.862,0.154,12.831,4.869c2.959,4.7,0.434,12.697-3.743,15.806c-3.614,2.69-10.002,1.202-13.099-1.553
				c-5.271-4.689-0.134-14.535,3.239-18.698C32.229,16.861,31.35,15.97,30.843,16.597L30.843,16.597z"/>
		</g>
	</g>
	<g>
		<g>
			<path fill="#FFFFFF" d="M32.333,15.83c-8.585,1.707-13.302,9.853-10.71,18.29c2.557,8.323,12.411,10.573,18.813,5.491
				c0.631-0.502-0.26-1.38-0.884-0.885c-7.103,5.639-16.551,0.657-17.348-8.038c-0.641-6.992,3.79-12.327,10.461-13.653
				C33.455,16.878,33.12,15.673,32.333,15.83L32.333,15.83z"/>
		</g>
	</g>
	<g>
		<g>
			<path fill="#FFFFFF" d="M33.22,24.347c3.264,2.543,3.987,5.519,3.753,9.519c-0.047,0.806,1.203,0.801,1.25,0
				c0.252-4.322-0.602-7.662-4.12-10.403C33.476,22.974,32.584,23.852,33.22,24.347L33.22,24.347z"/>
		</g>
	</g>
	<g>
		<g>
			<path fill="#FFFFFF" d="M61.057,22.741c-2.871,1.425-4.518,4.094-3.654,7.299c0.757,2.808,3.505,4.833,6.39,4.68
				c3.306-0.176,5.613-3.053,5.095-6.247c-0.562-3.469-4.183-5.875-7.516-5.817c-0.805,0.014-0.807,1.264,0,1.25
				c2.719-0.047,5.113,1.605,6.1,4.137c1.113,2.856-1.234,5.297-4.045,5.446c-2.272,0.121-4.146-1.768-4.818-3.78
				c-0.876-2.622,0.829-4.771,3.08-5.888C62.41,23.461,61.777,22.383,61.057,22.741L61.057,22.741z"/>
		</g>
	</g>
	<g>
		<g>
			<path fill="#FFFFFF" d="M59.325,15.99c-3.778,4.503-8.162,10.463-7.954,16.626c0.218,6.417,10.239,8.214,15.045,7.468
				c6.658-1.034,9.084-9.777,8.431-15.424c-0.898-7.758-8.837-8.843-15.08-8.854c-0.806-0.001-0.806,1.249,0,1.25
				c6.327,0.01,13.057,0.92,13.949,8.628c0.727,6.286-3.107,13.043-9.729,13.407c-3.18,0.176-6.342-1.166-8.963-2.826
				c-3.02-1.912-2.637-5.022-1.74-7.963c1.275-4.176,4.151-8.123,6.925-11.429C60.723,16.261,59.844,15.372,59.325,15.99
				L59.325,15.99z"/>
		</g>
	</g>
	<g>
		<g>
			<path fill="#FFFFFF" d="M59.601,15.83c-8.074,1.687-13.705,11.565-10.477,19.318c3.174,7.621,12.254,9.325,18.383,4.461
				c0.631-0.502-0.26-1.38-0.884-0.885c-6.526,5.181-14.725,1.566-17.05-6.004c-1.986-6.468,4.372-14.435,10.359-15.686
				C60.722,16.87,60.387,15.665,59.601,15.83L59.601,15.83z"/>
		</g>
	</g>
	<g>
		<g>
			<path fill="#FFFFFF" d="M60.362,24.252c3.217,2.449,5.626,5.216,3.718,9.38c-0.333,0.728,0.744,1.363,1.079,0.631
				c2.225-4.855-0.31-8.153-4.167-11.09C60.351,22.684,59.729,23.771,60.362,24.252L60.362,24.252z"/>
		</g>
	</g>
	<g>
		<g>
			<path fill="#FFFFFF" d="M92.2,23.32c-2.187-2.819-8.24-2.037-11.136-0.91c-4.186,1.628-4.133,8.577-3.082,12.034
				c1.322,4.348,6.215,6.809,10.411,5.461c2.081-0.669,1.915-2.544,2.97-0.224c0.663,1.458,2.956,1.25,4.183,1.27
				c5.185,0.084,4.141-3.593,4.144-7.916c0.008-9.518-0.939-19.044-1.294-28.532c-0.156-4.164-5.374-2.956-7.341-1.053
				c-1.544,1.493-0.801,4.637-0.706,6.423c0.245,4.622,0.116,9.209,0.766,13.805c0.112,0.796,1.316,0.456,1.205-0.332
				c-0.71-5.028-0.542-10.091-0.81-15.149c-0.538-2.653,1.355-3.506,5.679-2.56c-0.032,0.79-0.072,1.58-0.118,2.369
				c-0.149,2.722,0.421,5.615,0.632,8.331c0.385,4.947,0.62,9.903,0.719,14.864c0.044,2.191,0.001,4.384-0.012,6.576
				c-0.027,4.354-6.18,0.843-6.756-0.947c-0.135-0.42-0.718-0.646-1.044-0.276c-5.617,6.383-12.047-0.375-11.929-6.655
				c0.072-3.804,2.138-6.548,5.946-6.991c1.969-0.229,5.333-0.455,6.691,1.297C91.81,24.84,92.688,23.949,92.2,23.32L92.2,23.32z"/>
		</g>
	</g>
	<g>
		<g>
			<path fill="#FFFFFF" d="M92.215,27.405c-2.606-0.37-5.525-1.17-8.094-0.229c-2.57,0.94-2.812,4.324-1.751,6.501
				c1.202,2.469,3.763,2.496,5.971,1.362c2.543-1.307,4.4-4.163,4.333-7.031c-0.019-0.805-1.269-0.807-1.25,0
				c0.053,2.293-1.273,4.27-3.092,5.57c-1.92,1.374-4.321,1.43-5.074-1.142c-1.701-5.812,5.394-4.285,8.625-3.826
				C92.671,28.722,93.011,27.517,92.215,27.405L92.215,27.405z"/>
		</g>
	</g>
	<g>
		<g>
			<path fill="#FFFFFF" d="M80.915,22.474c-4.772,2.714-6.231,9.675-4.948,14.689c1.552,6.067,9.119,6.645,13.735,4.036
				c-0.306-0.125-0.612-0.249-0.918-0.374c0.111,0.389,0.222,0.777,0.333,1.166c0.102,0.356,0.585,0.62,0.918,0.374
				c0.899-0.666,1.756-1.3,2.819-1.707c0.745-0.285,0.422-1.494-0.332-1.205c-1.16,0.444-2.119,1.093-3.118,1.832
				c0.306,0.125,0.612,0.249,0.918,0.374c-0.111-0.389-0.222-0.777-0.333-1.166c-0.112-0.393-0.564-0.573-0.918-0.374
				c-4.461,2.521-10.636,1.648-12.062-3.926c-1.083-4.235,0.646-10.428,4.537-12.64C82.246,23.154,81.616,22.074,80.915,22.474
				L80.915,22.474z"/>
		</g>
	</g>
	<g>
		<g>
			<path fill="#FFFFFF" d="M97.602,39.62c-1.12,0.623-2.028,1.646-3.215,2.132c-1.449,0.593-3.17-0.589-4.668-0.552
				c-0.805,0.021-0.807,1.271,0,1.25c1.564-0.039,3.009,1.001,4.597,0.607c1.534-0.381,2.569-1.608,3.917-2.357
				C98.938,40.308,98.307,39.228,97.602,39.62L97.602,39.62z"/>
		</g>
	</g>
	<g>
		<g>
			<path fill="#FFFFFF" d="M94.408,1.657c-3.117-0.017-5.378,0.907-6.518,3.935c-0.614,1.631-0.502,3.611-0.46,5.31
				c0.091,3.711-0.082,7.449,0.166,11.153c0.054,0.8,1.304,0.805,1.25,0c-0.249-3.717,0.073-7.435-0.166-11.153
				c-0.274-4.268,0.62-8.023,5.729-7.995C95.214,2.912,95.213,1.662,94.408,1.657L94.408,1.657z"/>
		</g>
	</g>
	<g>
		<g>
			<path fill="#FFFFFF" d="M83.228,29.797c1.21-0.045,2.529,0.057,3.49,0.879c1.002,0.857,1.021,2.287,0.877,3.49
				c-0.095,0.8,1.156,0.79,1.25,0c0.19-1.594-0.042-3.219-1.243-4.375c-1.138-1.095-2.872-1.3-4.374-1.244
				C82.424,28.577,82.421,29.828,83.228,29.797L83.228,29.797z"/>
		</g>
	</g>
	<g>
		<g>
			<path fill="#FFFFFF" d="M104.609,17.874c0.027,4.268,0.272,8.449,1.021,12.652c0.478,2.682,0.194,5.522,1.561,7.974
				c1.563,2.805,7.378,2.247,7.355-1.352c-0.03-4.685-0.534-9.276-1.06-13.926c-0.224-1.974,0.335-5.598-1.263-7.196
				c-1.89-1.89-7.322-1.567-7.614,1.515c-0.076,0.803,1.175,0.795,1.25,0c0.269-2.835,5.811-0.762,6.005,1.133
				c0.154,1.511,0.22,3.035,0.372,4.548c0.396,3.939,0.946,7.832,1.028,11.798c0.064,3.086-5.233,3.214-5.83,0.346
				c-0.299-1.436-0.285-2.923-0.487-4.372c-0.616-4.403-1.059-8.672-1.088-13.12C105.854,17.068,104.604,17.068,104.609,17.874
				L104.609,17.874z"/>
		</g>
	</g>
	<g>
		<g>
			<path fill="#FFFFFF" d="M107.73,14.918c-5.184,0.333-6.228,3.795-5.704,8.49c0.347,3.121,0.843,6.142,0.953,9.294
				c0.109,3.093,0.189,6.433,1.88,9.125c0.17,0.271,0.569,0.424,0.855,0.225c1.176-0.823,2.067-1.679,3.015-2.775
				c0.523-0.607-0.356-1.496-0.885-0.885c-2.977,3.451-3.268-0.785-3.483-3.156c-0.216-2.369-0.167-4.756-0.371-7.128
				c-0.377-4.377-3.15-11.496,3.74-11.939C108.53,16.117,108.536,14.867,107.73,14.918L107.73,14.918z"/>
		</g>
	</g>
	<g>
		<g>
			<path fill="#FFFFFF" d="M105.399,42.137c3.767,0.482,7.239-0.08,8.864-3.899c0.312-0.732-0.765-1.37-1.08-0.631
				c-1.459,3.431-4.457,3.707-7.784,3.28C104.601,40.785,104.611,42.037,105.399,42.137L105.399,42.137z"/>
		</g>
	</g>
	<g>
		<g>
			<path fill="#FFFFFF" d="M108.195,3.978c-3.562-0.019-3.473,5.447-0.578,6.496c3.736,1.354,4.225-5.677,0.744-6.474
				c-0.784-0.18-1.118,1.025-0.332,1.205c2.05,0.469,1.823,4.937-0.075,4.059c-1.518-0.701-1.889-4.048,0.241-4.037
				C109.001,5.232,109,3.982,108.195,3.978L108.195,3.978z"/>
		</g>
	</g>
	<g>
		<g>
			<path fill="#FFFFFF" d="M107.85,3.857c-1.358,0.472-2.783,0.838-3.906,1.779c-1.176,0.986-1.235,2.725-0.865,4.094
				c0.87,3.223,4.723,2.267,6.566,0.627c0.604-0.537-0.284-1.417-0.885-0.884c-1.362,1.212-3.914,2.006-4.548-0.34
				c-0.739-2.737,2.007-3.39,3.97-4.072C108.939,4.8,108.614,3.592,107.85,3.857L107.85,3.857z"/>
		</g>
	</g>
	<g>
		<g>
			<path fill="#FFFFFF" d="M120.161,17.333c0.89,0.051,3.188-0.395,3.447,1.04c0.067,0.372,0.609,0.604,0.918,0.374
				c7.924-5.922,13.326,1.408,13.962,9.184c0.078,0.956,1.207,11.366,0.294,11.576c-2.243,0.515-3.533,0.803-3.98-1.655
				c-0.368-2.025-0.502-4.089-0.8-6.126c-0.458-3.134-1.938-5.785-4.803-7.232c-4.433-2.239-6.056,4.928-6.279,7.697
				c-0.116,1.438,1.763,7.238-1.083,7.501c-2.75,0.254-2.077-5.139-2.032-6.902c0.136-5.272,1.145-10.458,1.036-15.747
				c-0.017-0.805-1.267-0.807-1.25,0c0.16,7.854-1.982,15.66-0.478,23.472c0.051,0.265,0.342,0.466,0.603,0.459
				c1.805-0.05,4.925,0.266,4.954-2.456c0.028-2.647-0.702-5.207-0.334-7.854c0.165-1.189,0.564-2.327,1.068-3.412
				c1.682-0.147,3.363-0.294,5.045-0.441c1.067,1.178,1.767,2.519,2.097,4.024c0.646,2.196-0.133,8.774,2.337,10.222
				c1.129,0.661,4.638-0.021,5.304-1.257c1.279-2.373-0.268-7.908-0.376-10.539c-0.17-4.17-0.735-8.177-3.671-11.327
				c-2.149-2.306-5.65-3.915-8.714-2.452c-1.577,0.753-2.207,2.068-3.416,0.861c-0.767-0.766-2.934-0.205-3.849-0.257
				C119.355,16.038,119.359,17.288,120.161,17.333L120.161,17.333z"/>
		</g>
	</g>
	<g>
		<g>
			<path fill="#FFFFFF" d="M125.544,27.198c1.604,0.167,4.37-0.209,4.596,2.516c0.062,0.761-0.167,1.559-0.04,2.311
				c0.534,3.168,1.271,6.294,1.643,9.488c0.051,0.438,0.357,0.664,0.791,0.603c1.021-0.146,1.545-0.431,2.273-1.158
				c0.57-0.571-0.313-1.455-0.885-0.885c-0.573,0.279-1.147,0.559-1.721,0.838c0.264,0.201,0.527,0.401,0.791,0.603
				c-0.491-4.226-1.315-8.323-1.665-12.553c-0.262-3.175-3.503-2.774-5.783-3.012C124.743,25.865,124.751,27.116,125.544,27.198
				L125.544,27.198z"/>
		</g>
	</g>
	<g>
		<g>
			<path fill="#FFFFFF" d="M132.34,42.115c1.28,0.2,2.655,0.624,3.96,0.455c1.222-0.159,2.088-1.038,2.836-1.947
				c0.507-0.617-0.372-1.508-0.885-0.885c-0.632,0.769-1.302,1.555-2.358,1.62c-1.058,0.065-2.183-0.286-3.221-0.448
				C131.884,40.787,131.545,41.991,132.34,42.115L132.34,42.115z"/>
		</g>
	</g>
	<g>
		<g>
			<path fill="#FFFFFF" d="M119.733,16.169c-1.144,0.681-2.445,1.117-3.245,2.211c-1.419,1.941-0.393,6.807-0.393,8.983
				c0,4.753-1.482,10.722,0.75,15.131c0.159,0.313,0.568,0.376,0.855,0.225c1.021-0.538,1.741-1.05,2.457-1.929
				c0.504-0.62-0.375-1.51-0.885-0.885c-2.633,3.235-2.222-2.165-2.219-3.885c0.002-1.931,0.181-3.863,0.272-5.791
				c0.139-2.941,0.019-5.915,0.019-8.859c0-2.588,1.098-2.977,3.019-4.122C121.055,16.836,120.427,15.755,119.733,16.169
				L119.733,16.169z"/>
		</g>
	</g>
	<g>
		<g>
			<path fill="#FFFFFF" d="M117.718,42.803c2.571,0.004,5.39-0.096,6.235-3.002c0.226-0.775-0.98-1.104-1.205-0.332
				c-0.659,2.265-3.103,2.087-5.03,2.084C116.912,41.552,116.913,42.802,117.718,42.803L117.718,42.803z"/>
		</g>
	</g>
	<g>
		<g>
			<path fill="#FFFFFF" d="M145.323,19.353c0.854-0.051,4.526-0.943,4.436,0.972c0.417,0,0.833,0,1.25,0
				c4.144-2.389,6.588-1.94,7.331,1.347c0.384,1.001,0.686,2.018,1.1,3.009c0.261,0.626,1.203,0.585,1.228-0.166
				c0.127-3.971,2.786-9.049,7.583-8.257c5.741,0.949,5.251,9.045,5.198,13.243c-0.029,2.357,2.206,10.562-1.571,11.019
				c-3.463,0.418-2.953-4.428-3.013-6.686c-0.083-3.141,0.061-8.056-3.145-9.933c-1.858-1.089-2.31,2.525-2.524,3.433
				c-1.484,0.284-2.969,0.569-4.452,0.854c-0.334-0.589-0.601-1.207-0.799-1.853c-0.223-0.626-0.418-1.062-0.697-1.663
				c-0.367-0.792-1.266-1.712-2.188-1.773c-2.903-0.192-4.46,1.695-4.776,4.477c-0.231,2.03-0.174,4.03-0.082,6.067
				c0.047,1.021,0.11,2.018,0.231,3.034c0.629,2.085-0.661,2.858-3.868,2.321c0.002-0.58,0.02-1.16,0.053-1.739
				c0.269-6.089,1.271-12.451-0.468-18.393c-0.226-0.772-1.433-0.443-1.205,0.332c1.768,6.042,0.659,12.714,0.386,18.917
				c-0.062,1.421,0.021,4.617,2.215,4.562c3.169-0.082,4.321-1.766,4.268-4.77c-0.036-1.994-0.353-4.021-0.438-6.024
				c-0.046-1.08-0.019-2.149,0.036-3.229c0.148-2.933,4.1-5.064,5.329-1.787c0.631,1.682,2.053,5.184,4.512,4.507
				c1.358-0.373,2.265-1.355,2.853-2.589c0.814-1.707,1.414-4.615,2.925-0.663c1.479,3.867-0.066,8.434,1.308,12.362
				c0.842,2.405,4.547,1.379,6.286,1.075c0.277-0.048,0.45-0.344,0.459-0.603c0.196-5.499-0.156-11.12-0.411-16.617
				c-0.17-3.656-1.864-6.628-4.915-8.617c-5.528-3.604-10.198,4.608-10.338,8.992c0.409-0.056,0.818-0.11,1.228-0.166
				c-1.415-3.394-1.901-6.797-5.847-7.915c-2.74-0.776-4.977,1.346-5.039,3.891c-0.021,0.809,1.212,0.801,1.25,0
				c0.158-3.351-3.314-2.364-5.686-2.222C144.522,18.151,144.517,19.401,145.323,19.353L145.323,19.353z"/>
		</g>
	</g>
	<g>
		<g>
			<path fill="#FFFFFF" d="M163.722,28.133c3.115-0.196,1.522,11.523,2.388,13.705c0.129,0.326,0.409,0.521,0.769,0.437
				c1.037-0.243,1.794-0.499,2.681-1.061c0.679-0.431,0.052-1.513-0.631-1.08c-0.729,0.494-1.523,0.806-2.382,0.936
				c0.256,0.146,0.513,0.291,0.769,0.437c-1.085-2.735,1.524-14.945-3.593-14.623C162.921,26.934,162.917,28.184,163.722,28.133
				L163.722,28.133z"/>
		</g>
	</g>
	<g>
		<g>
			<path fill="#FFFFFF" d="M151.7,26.515c2.089-0.778,2.813,0.694,3.86,2.211c0.92,1.33,2.121,2.173,3.792,2.001
				c0.794-0.081,0.802-1.332,0-1.25c-2.095,0.215-2.776-1.64-3.861-3.047c-1.07-1.389-2.492-1.728-4.123-1.12
				C150.62,25.588,150.943,26.797,151.7,26.515L151.7,26.515z"/>
		</g>
	</g>
	<g>
		<g>
			<path fill="#FFFFFF" d="M166.936,42.289c2.852,0.953,6.353,2.087,8.06-1.217c0.369-0.715-0.71-1.348-1.08-0.631
				c-1.391,2.693-4.407,1.391-6.647,0.643C166.501,40.828,166.175,42.035,166.936,42.289L166.936,42.289z"/>
		</g>
	</g>
	<g>
		<g>
			<path fill="#FFFFFF" d="M145.324,18.376c-3.138-0.11-2.93,3.437-2.799,5.732c0.162,2.85,0.797,5.641,0.89,8.499
				c0.119,3.705-0.186,7.219,0.863,10.819c0.129,0.444,0.712,0.619,1.045,0.276c0.982-1.018,0.862-0.874,1.65-2.053
				c0.449-0.672-0.634-1.297-1.08-0.631c-1.688,2.523-1.248-4.454-1.249-5.323c0-1.891,0.06-3.759-0.144-5.642
				c-0.13-1.212-2.18-10.534,0.823-10.428C146.13,19.654,146.127,18.404,145.324,18.376L145.324,18.376z"/>
		</g>
	</g>
	<g>
		<g>
			<path fill="#FFFFFF" d="M144.714,43.863c2.514,0.37,5.281,0.146,6.192-2.622c0.253-0.768-0.954-1.094-1.205-0.332
				c-0.667,2.025-2.878,2.01-4.655,1.749C144.258,42.542,143.919,43.746,144.714,43.863L144.714,43.863z"/>
		</g>
	</g>
	<g>
		<g>
			<path fill="#FFFFFF" d="M158.958,20.664c0.498-0.857,1.002-1.696,1.753-2.358c0.85-0.749,2.099-0.944,3.18-1.053
				c0.794-0.08,0.802-1.331,0-1.25c-1.339,0.135-2.659,0.386-3.771,1.188c-0.992,0.716-1.639,1.803-2.242,2.842
				C157.473,20.731,158.553,21.36,158.958,20.664L158.958,20.664z"/>
		</g>
	</g>
	<g>
		<g>
			<path fill="#FFFFFF" d="M149.316,19.029c1.088-0.476,2.172-1.054,3.332-1.333c0.783-0.188,0.451-1.394-0.332-1.205
				c-1.262,0.303-2.447,0.941-3.631,1.459C147.948,18.272,148.585,19.349,149.316,19.029L149.316,19.029z"/>
		</g>
	</g>
	<g>
		<g>
			<path fill="#FFFFFF" d="M184.476,29.145c4.385,0.438,9.02,0.499,13.336-0.471c4.104-0.923,3.125-4.737,2.257-7.974
				c-1.088-4.056-7.442-4.65-10.729-4.698c-4.216-0.061-8.081,1.115-9.761,5.205c-1.484,3.617-0.397,9.241,1.129,12.678
				c2.301,5.184,6.243,8.387,11.998,8.662c1.1,0.053,7.882-1.281,5.682-3.667c-1.365-1.48-2.756-1.346-4.734-1.229
				c-4.348,0.254-10.49-3.764-8.575-8.965c0.279-0.758-0.929-1.082-1.205-0.332c-1.672,4.542,2.754,9.412,6.932,10.565
				c0.883,0.244,1.96,0.044,2.849-0.019c0.704-0.063,1.408-0.084,2.114-0.063c0.244,0.554,0.487,1.107,0.731,1.661
				c-1.197,0.571-2.462,0.838-3.793,0.799c-6.407,0.384-10.363-5.361-11.756-10.844c-1.104-4.349-1.601-10.561,3.524-12.505
				c3.654-1.386,8.629-0.888,12.072,0.776c2.473,1.195,2.802,3.92,3.033,6.325c0.28,2.9-4.12,2.819-5.883,2.972
				c-3.044,0.264-6.183,0.177-9.222-0.127C183.674,27.815,183.682,29.066,184.476,29.145L184.476,29.145z"/>
		</g>
	</g>
	<g>
		<g>
			<path fill="#FFFFFF" d="M194.951,21.092c-1.825-1.125-11.948-2.326-10.755,1.905c0.294,1.044,1.473,1.772,2.321,2.308
				c1.726,1.088,3.874,1.594,5.895,1.597c1.307,0.001,3.323-0.486,3.879-1.848c0.543-1.331-0.409-2.67-1.115-3.738
				c-0.443-0.669-1.526-0.043-1.08,0.631c0.541,0.817,1.741,2.229,0.634,3.056c-1.265,0.944-3.189,0.7-4.615,0.396
				c-0.607-0.13-5.755-1.989-4.588-3.236c0.88-0.94,2.966-0.903,4.124-0.922c1.534-0.025,3.332,0.105,4.67,0.93
				C195.008,22.596,195.635,21.514,194.951,21.092L194.951,21.092z"/>
		</g>
	</g>
	<g>
		<g>
			<path fill="#FFFFFF" d="M187.163,16.134c-9.698,1.231-11.078,9.377-8.923,17.721c1.981,7.667,12.74,13.825,19.17,7.203
				c0.562-0.579-0.322-1.464-0.885-0.885c-6.655,6.855-15.652-1.126-17.42-7.967c-1.809-7.003,0.055-13.807,8.058-14.823
				C187.951,17.284,187.96,16.032,187.163,16.134L187.163,16.134z"/>
		</g>
	</g>
	<g>
		<g>
			<path fill="#FFFFFF" d="M184.189,31.94c4.572,0.48,12.207-0.505,15.544-3.987c0.557-0.582-0.326-1.468-0.885-0.885
				c-3.068,3.203-10.474,4.062-14.659,3.622C183.387,30.606,183.396,31.857,184.189,31.94L184.189,31.94z"/>
		</g>
	</g>
	<g>
		<g>
			<path fill="#FFFFFF" d="M188.355,21.269c1.632,0.235,6.17,2.658,3.516,4.471c-0.661,0.452-0.037,1.536,0.631,1.08
				c3.77-2.576-0.9-6.337-3.814-6.756C187.899,19.95,187.559,21.154,188.355,21.269L188.355,21.269z"/>
		</g>
	</g>
</g>
</svg>
