<?xml version="1.0" encoding="utf-8"?>
<!-- Generator: Adobe Illustrator 16.0.0, SVG Export Plug-In . SVG Version: 6.00 Build 0)  -->
<!DOCTYPE svg PUBLIC "-//W3C//DTD SVG 1.1//EN" "http://www.w3.org/Graphics/SVG/1.1/DTD/svg11.dtd">
<svg version="1.1" id="Layer_1" xmlns="http://www.w3.org/2000/svg" xmlns:xlink="http://www.w3.org/1999/xlink" x="0px" y="0px"
	 width="95.792px" height="57.179px" viewBox="0 0 95.792 57.179" enable-background="new 0 0 95.792 57.179" xml:space="preserve">
<g>
	<path fill="#363537" d="M91.552,27.396c-0.18-0.746-0.407-1.366-0.664-1.894c-0.142-0.325-0.298-0.656-0.48-1.001
		c-1.354-2.551-20.374-9.396-27.054-10.205c0,0-20.409-4.752-22.056-1.468c0,0-5.37,6.532-0.73,8.666
		c-4.474,2.181-7.904,4.489-9.766,6.817c-2.408,3.01-8.102,5.808-12.453,7.597c-4.348,1.79-7.77,5.845-10.689,7.316
		c-1.616,0.814-4.832,4.637-6.537,8.044c0.031-0.102,0.055-0.201,0.09-0.305c-0.762,1.479-1.245,2.892-1.21,3.961
		C0,55.963,0.455,56.704,1.588,56.91c5.004,0.911,14.183-0.651,21.313-2.361c7.134-1.712,13.084-2.973,19.154-4.806
		c7.1-2.144,8.283-4.307,12.88-5.419c4.597-1.114,15.12-5.776,19.35-5.881c3.84-0.096,3.084,0.319,6.416-1.646
		c4.109-1.053,12.383-2.735,10.797-9.492C91.516,27.337,91.535,27.364,91.552,27.396z"/>
	<path fill="#EEBB53" d="M47.79,9.561c-6.775,3.057-12.015,6.49-14.569,10.041c-2.557,3.553-8.484,6.744-13.003,8.764
		s-8.144,6.8-11.185,8.481C5.991,38.528-2.696,51.896,2.422,53.153s14.593-0.333,21.968-2.169
		c7.376-1.835,13.525-3.166,19.813-5.184c7.354-2.358,8.629-4.928,13.383-6.124c4.753-1.196,15.693-6.482,20.043-6.474
		c4.349,0.008,2.935,0.597,7.819-2.544s2.689-0.79,4.885-3.141"/>
	<path fill="#F9D498" d="M86.369,28.188c-4.885,3.141-3.471,2.552-7.819,2.544c-4.35-0.009-15.29,5.277-20.043,6.474
		c-4.754,1.196-6.029,3.766-13.383,6.124c-6.288,2.018-12.438,3.349-19.813,5.184c-7.375,1.836-16.85,3.427-21.968,2.169
		c-1.78-0.438-1.888-2.343-1.146-4.71c-1.568,3.359-2.113,6.46,0.224,7.034c5.118,1.258,14.593-0.333,21.968-2.169
		c7.376-1.835,13.525-3.166,19.813-5.184c7.354-2.358,8.629-4.928,13.383-6.124c4.753-1.196,15.693-6.482,20.043-6.474
		c4.349,0.008,2.935,0.597,7.819-2.544s2.689-0.79,4.885-3.141l-1.509-0.637C88.309,26.997,87.548,27.431,86.369,28.188z"/>
	<path fill="#E5AA25" d="M44.427,1.267C46.208-2.641,67.052,3.74,67.052,3.74c6.842,1.188,26.202,10.047,27.523,13.166
		c4.844,11.435-6.025,13.329-10.646,14.609c0,0-9.635-5.03-13.673-7.791c-3.556-2.432-11.055-7.831-14.587-8.989
		s-10.971-2.509-10.971-2.509C37.822,10.194,44.427,1.267,44.427,1.267z"/>
	<path fill="#EEBB53" d="M95.674,20.433c-3.005-6.646-9.242-3.188-14.247,9.212C81.327,22.747,93.294,7.412,95.674,20.433z"/>
	<path fill="#DB4526" d="M47.431,17.457c1.587,2.264-1.093,3.706-4.512,4.639c-3.249,0.887-7.014-0.714-6.276-2.5
		c0.838-2.029,2.206-3.875,5.574-3.875C45.586,15.721,46.321,15.875,47.431,17.457z"/>
	<path fill="#DB4526" d="M61.134,27.102c1.587,2.51-0.828,4.958-4.215,6.115c-4.75,1.624-7.889-1.324-7.152-3.305
		c0.839-2.249,2.207-4.296,5.575-4.296C58.711,25.616,60.024,25.349,61.134,27.102z"/>
	<path fill="#DB4526" d="M37.884,27.16c1.587,2.264-0.828,4.473-4.215,5.517c-4.75,1.465-7.889-1.195-7.151-2.981
		c0.838-2.029,2.206-3.875,5.574-3.875C35.461,25.82,36.774,25.578,37.884,27.16z"/>
	<path fill="#DB4526" d="M24.336,41.45c2.557,1.051-0.828,4.473-4.215,5.517c-4.75,1.465-7.694-1.127-7.151-2.981
		c1.449-4.948,1.529-2.906,2.949-3.889C17.544,38.973,21.044,40.097,24.336,41.45z"/>
	<path fill="#5B4134" d="M35.12,37.175c0.5,1.25-0.75,1.375-1.125,2.25s-1.625-1.25-2.75-1.125s-1.875-2.375,0-2.25
		s2.625-1.5,3.125-0.625s1.5-0.125,1.375,0.5S35.12,37.175,35.12,37.175z"/>
	<path fill="#5B4134" d="M53.184,18.7c1.25-0.396,1.375,0.593,2.251,0.89c0.874,0.297-1.251,1.285-1.126,2.175
		c0.125,0.891-2.375,1.483-2.25-0.001c0.126-1.481-1.5-2.075-0.625-2.471c0.876-0.396-0.124-1.187,0.5-1.087
		C52.559,18.305,53.184,18.7,53.184,18.7z"/>
	<path fill="#5B4134" d="M53.184,31.954c1.25-0.396,1.375,0.593,2.251,0.89c0.874,0.297-1.251,1.285-1.126,2.175
		c0.125,0.891-2.375,1.483-2.25-0.001c0.126-1.481-1.5-2.075-0.625-2.471c0.876-0.396-0.124-1.187,0.5-1.087
		C52.559,31.559,53.184,31.954,53.184,31.954z"/>
	<path fill="#7C993D" d="M34.696,36.412c0.205,1.533,2.767,2.491,3.381,1.15c0.614-1.342,0.205-4.026,0-4.411
		C37.872,32.768,35.105,33.151,34.696,36.412"/>
	<path fill="#7C993D" d="M63.544,27.315c0.323,0.923,4.357,1.5,5.324,0.692s0.323-2.423,0-2.654
		C68.546,25.122,64.188,25.354,63.544,27.315"/>
	<path fill="#7C993D" d="M43.26,23.147c0.161,0.923,2.178,1.5,2.662,0.692c0.482-0.808,0.161-2.423,0-2.654
		C45.76,20.954,43.582,21.186,43.26,23.147"/>
	<path fill="#7C993D" d="M7.062,43.996c0.323,0.923,4.357,1.5,5.324,0.692s0.323-2.423,0-2.654
		C12.063,41.803,7.706,42.034,7.062,43.996"/>
	<path fill="#5B4134" d="M15.53,36.129c1.638-0.396,1.802,0.593,2.95,0.89c1.146,0.297-1.078,2.987-1.476,2.175
		c-0.606-1.239-3.113,1.483-2.949-0.001c0.165-1.481-1.966-2.075-0.818-2.471s0.286-0.414,0.654-1.087
		C14.288,34.911,15.53,36.129,15.53,36.129z"/>
</g>
</svg>
