<?xml version="1.0" encoding="utf-8"?>
<!-- Generator: Adobe Illustrator 16.0.0, SVG Export Plug-In . SVG Version: 6.00 Build 0)  -->
<!DOCTYPE svg PUBLIC "-//W3C//DTD SVG 1.1//EN" "http://www.w3.org/Graphics/SVG/1.1/DTD/svg11.dtd">
<svg version="1.1" id="Layer_1" xmlns="http://www.w3.org/2000/svg" xmlns:xlink="http://www.w3.org/1999/xlink" x="0px" y="0px"
	 width="179.474px" height="99.439px" viewBox="0 0 179.474 99.439" enable-background="new 0 0 179.474 99.439"
	 xml:space="preserve">
<g>
	<path fill="#363537" d="M172.097,80.714c0.087-0.244,0.137-0.489,0.119-0.734v-0.002c0-0.002,0-0.002,0-0.002
		c-1.529-21.771-8.502-55.03-43.347-65.797c-11.626-7.787-28.118-11.915-51.601-9.006C57.46,7.625,42.832,14.466,32.107,23.298
		c-3.092-0.68-4.387,5.276-10.237,5.839c-4.947,0.475-2.146,3.379-2.419,7.684c-1.991,2.787-3.714,5.639-5.225,8.51
		c-1.226,0.443-1.843,1.036-1.833,2.243c-3.007,1.882-7.281,0.388-5.695,4.744c0.751,2.064,0.628,3.86,0.732,5.131
		c-6.78,5.301-6.985,10.543-4.535,12.525c2.556,2.072,3.097,1.342-0.01,5.859c-3.106,4.512-4.321,4.702-0.489,7.809
		c3.838,3.109-5.093,7.595,2.951,9.426c3.646,0.828,5.79,1.885,7.366,2.289c5.036,9.6,125.246,0.721,153.557-10.613
		c0.003,0,0.003,0,0.003,0c0.623-0.252,1.199-0.502,1.731-0.753c0.035-0.017,0.071-0.033,0.106-0.05
		c1.065-0.51,1.948-1.025,2.609-1.543c0.033-0.026,0.057-0.053,0.087-0.076c0.269-0.217,0.497-0.436,0.69-0.652
		c0.056-0.064,0.107-0.129,0.159-0.195c0.146-0.186,0.259-0.373,0.347-0.562C172.034,80.847,172.074,80.78,172.097,80.714z"/>
	<g>
		<path fill="#C38C2C" d="M13.419,84.378C9.413,67.358,17.629,9.22,84.522,0.936c66.578-8.244,77.154,39.914,79.037,68.381
			C164.447,82.757,16.123,95.863,13.419,84.378z"/>
		<path fill="#5B4134" d="M33.493,56.523c0,0-10.284-9.505-17.935-3.981c-7.653,5.521-7.964,11.129-5.411,13.195
			c2.556,2.073,3.097,1.342-0.009,5.859c-3.106,4.512-4.321,4.703-0.49,7.809C13.487,82.515,4.556,87,12.6,88.831
			c8.037,1.828,8.804,4.797,12.184-0.673c3.373-5.477,9.762,18.462,10.438-12.64C35.908,44.408,33.493,56.523,33.493,56.523z"/>
		<path fill="#DB4526" d="M25.598,44.87c0,0-2.81-3.615-5.822-1.607s-7.432,0.402-5.825,4.82c1.607,4.417-0.803,7.632,3.615,7.029
			s-0.402,3.36,8.032,0.073s12.654-1.694,11.649-5.604s-2.815-6.931-4.42-6.926"/>
		<path fill="#FFFFFF" d="M32.253,50.113c0,0,3.005,4.318,6.229,1.92c3.224-2.398,7.955-0.479,6.234-5.759
			c-1.72-5.279,0.859-9.119-3.869-8.399c-4.728,0.72,0.431-4.015-8.595-0.087c-9.027,3.928-13.543,2.024-12.466,6.695
			c1.073,4.672,3.01,8.281,4.728,8.277"/>
		<path fill="#7C993D" d="M49.659,43.811c-10.75-1.108-31.658,1.883-25.424-5.483c6.237-7.364-2.028-12.76,4.888-13.426
			c6.91-0.664,7.456-8.889,12.125-4.768c4.665,4.116,8.15,1.172,12.208-3.283c4.048-4.455,3.692-9.167,12.346-7.637
			c8.663,1.535,9.959-5.836,16.82-1.275c6.858,4.561,11.211-4.625,13.224,4.782c2.017,9.402,10.736,9.072,1.544,11.776
			c-9.19,2.713-8.962,11.167-14.248,9.8C77.86,32.931,49.659,43.811,49.659,43.811z"/>
		<path fill="#E5AA25" d="M19.815,90.806c-4.26-17.02,4.476-75.158,75.61-83.442c70.798-8.244,82.045,39.914,84.045,68.38
			C180.414,89.185,22.689,102.29,19.815,90.806z"/>
		<path fill="#EEBB53" d="M95.425,7.358c-11.393,1.328-21.167,3.944-29.561,7.454c6.865-2.299,14.532-4.041,23.134-5.043
			c70.798-8.244,82.044,39.914,84.044,68.381c0.092,1.309-1.338,2.614-3.97,3.896c6.651-2.028,10.548-4.163,10.397-6.307
			C177.47,47.272,166.223-0.885,95.425,7.358z"/>
		<ellipse fill="#C38C2C" cx="64.919" cy="48.553" rx="2.611" ry="1.028"/>
		<path fill="#C38C2C" d="M100.503,62.856c0,0.709-0.94,1.285-2.102,1.285c-1.162,0-2.104-0.576-2.104-1.285
			c0-0.713,0.941-1.287,2.104-1.287C99.563,61.569,100.503,62.144,100.503,62.856z"/>
		<ellipse fill="#C38C2C" cx="55.43" cy="81.637" rx="1.305" ry="1.901"/>
		<ellipse fill="#C38C2C" cx="143.693" cy="65.313" rx="1.305" ry="1.028"/>
		
			<ellipse transform="matrix(0.8918 -0.4524 0.4524 0.8918 -5.6503 56.6104)" fill="#C38C2C" cx="115.527" cy="40.118" rx="2.611" ry="1.029"/>
	</g>
</g>
</svg>
