<?xml version="1.0" encoding="utf-8"?>
<!-- Generator: Adobe Illustrator 16.0.0, SVG Export Plug-In . SVG Version: 6.00 Build 0)  -->
<!DOCTYPE svg PUBLIC "-//W3C//DTD SVG 1.1//EN" "http://www.w3.org/Graphics/SVG/1.1/DTD/svg11.dtd">
<svg version="1.1" id="Layer_1" xmlns="http://www.w3.org/2000/svg" xmlns:xlink="http://www.w3.org/1999/xlink" x="0px" y="0px"
	 width="320.984px" height="102.054px" viewBox="0 0 320.984 102.054" enable-background="new 0 0 320.984 102.054"
	 xml:space="preserve">
<path fill="#363537" d="M220.529,78.666c-3.296,4.14-6.575,8.157-12.368,10.308c-5.82,2.16-13.478,4.191-19.892,3.29
	c-6.283-0.882-13.104-4.932-17.971-7.844c-11.941-7.143-19.166-16.676-26.526-26.733c-5.389-7.366-8.387-14.935-11.94-22.93
	c-2.666-6-7.838-11.897-4.927-18.632c2.312-5.353,8.893-9.335,16.095-9.805l72.857-4.745c9.872-0.643,18.273,5.063,18.763,12.744
	c0.606,9.497-1.921,19.016-3.168,28.526C230.558,49.682,223.534,74.886,220.529,78.666z"/>
<path fill="#363537" d="M306.68,71.634c-3.159,3.824-6.301,7.535-11.838,9.529c-5.567,2.004-12.888,3.894-19.014,3.078
	c-5.998-0.8-12.508-4.518-17.153-7.191c-11.395-6.558-18.277-15.331-25.287-24.585c-5.131-6.777-7.982-13.749-11.357-21.111
	c-2.535-5.526-7.466-10.949-4.671-17.166c2.222-4.938,8.519-8.625,15.4-9.074l69.622-4.534c9.434-0.615,17.447,4.625,17.901,11.705
	c0.558,8.753-1.878,17.535-3.09,26.304C316.324,44.894,309.56,68.145,306.68,71.634z"/>
<path fill="#131313" d="M27.426,83.815c3.318-4.016,11.112-30.763,12.116-38.014c0.931-6.712,2.478-13.431,3.225-20.142
	c-7.071-0.736-14.204,1.233-20.997,4.303c-3.703,1.673-7.286,3.547-10.837,5.481c-3.249,1.832-5.696,3.329-6.776,3.926
	C2.298,40.397,0.981,41.079,0,41.509v56.737c4.832-0.595,9.718-2.003,13.788-3.466C20.169,92.483,23.788,88.214,27.426,83.815z"/>
<path fill="#363537" d="M115.622,87.324c-3.638,4.398-7.258,8.668-13.638,10.964c-6.412,2.307-14.847,4.48-21.902,3.542
	c-6.913-0.919-14.41-5.195-19.761-8.27c-13.126-7.543-21.054-17.633-29.128-28.278c-5.913-7.798-9.194-15.816-13.083-24.284
	c-2.921-6.356-8.598-12.596-5.377-19.746c2.559-5.683,9.812-9.924,17.741-10.44l80.203-5.227c10.867-0.708,20.099,5.32,20.62,13.463
	c0.644,10.069-2.162,20.171-3.56,30.26C126.733,56.561,118.939,83.308,115.622,87.324z"/>
<path fill="#E47E7E" d="M10.933,35.444c-3.517,1.915-7.002,3.888-10.541,5.784c-0.098,0.052-0.209,0.09-0.312,0.131
	C0.048,41.372,0.029,41.376,0,41.387v0.122c0.981-0.43,2.298-1.112,4.157-2.14C5.237,38.773,7.684,37.275,10.933,35.444z"/>
</svg>
