<?xml version="1.0" encoding="utf-8"?>
<!-- Generator: Adobe Illustrator 16.0.0, SVG Export Plug-In . SVG Version: 6.00 Build 0)  -->
<!DOCTYPE svg PUBLIC "-//W3C//DTD SVG 1.1//EN" "http://www.w3.org/Graphics/SVG/1.1/DTD/svg11.dtd">
<svg version="1.1" id="Layer_1" xmlns="http://www.w3.org/2000/svg" xmlns:xlink="http://www.w3.org/1999/xlink" x="0px" y="0px"
	 width="320.984px" height="98.117px" viewBox="0 0 320.984 98.117" enable-background="new 0 0 320.984 98.117"
	 xml:space="preserve">
<path fill="#FFFFFF" d="M63.493,77.094c-2.113,3.937-4.22,7.756-8.003,9.741c-3.8,1.995-8.811,3.84-13.038,2.881
	c-4.144-0.938-8.68-4.933-11.916-7.805c-7.943-7.042-12.811-16.32-17.776-26.101C9.124,48.645,7.058,41.32,4.622,33.576
	c-1.829-5.812-5.303-11.56-3.474-17.999C2.603,10.458,6.88,6.721,11.61,6.373L59.461,2.85c6.483-0.477,12.08,5.134,12.498,12.531
	c0.518,9.146-1.025,18.27-1.728,27.404C69.727,49.348,65.424,73.5,63.493,77.094z"/>
<path fill="#D1D3D4" d="M46.043,88.732c-4.151-1.073-8.711-5.535-11.969-8.743c-7.988-7.87-12.916-18.188-17.944-29.068
	c-3.68-7.97-5.792-16.104-8.275-24.706C6.375,21.1,3.875,16.02,3.786,10.588c-1.183,1.41-2.103,3.104-2.638,4.988
	c-1.829,6.439,1.645,12.187,3.474,17.999c2.438,7.745,4.503,15.07,8.138,22.235c4.965,9.781,9.833,19.059,17.776,26.103
	c3.236,2.872,7.772,6.864,11.916,7.805c2.691,0.61,5.698,0.083,8.509-0.895C49.285,89.118,47.612,89.139,46.043,88.732z"/>
<path fill="#FFFFFF" d="M141.665,88.912c-4.18,4.395-9.736,7.357-15.803,8.572c-18.22,3.652-32.158-9.037-39.591-24.594
	c-2.943-6.156-5.163-12.639-7.19-19.151c-1.881-6.04-4.089-11.992-5.928-18.033c-0.998-3.274-1.446-6.701-0.229-9.991
	c1.863-5.04,6.854-8.559,12.21-8.668l54.16-1.112c7.338-0.15,13.408,5.736,13.558,13.148c0.242,12.109-0.826,24.241-2.596,36.208
	c-0.798,5.398-1.262,11.2-3.562,16.209C145.413,84.286,143.703,86.77,141.665,88.912z"/>
<path fill="#D1D3D4" d="M265.826,54.21c-7.768-16.371-5.056-36.274-4.361-53.402c-0.517,0.489-0.997,1.017-1.432,1.589
	c-2.032,2.669-2.675,5.817-2.8,8.947c-0.61,15.231-3.039,32.945,3.872,47.512c6.373,13.436,26.14,23.526,43.313,17.685
	c0.581-0.198,1.129-0.431,1.675-0.664C289.149,77.329,271.967,67.155,265.826,54.21z"/>
<path fill="#D1D3D4" d="M129.058,93.906c-18.22,3.652-32.157-9.037-39.592-24.594c-2.941-6.158-5.161-12.639-7.188-19.153
	c-1.88-6.039-4.088-11.992-5.929-18.033c-0.998-3.275-1.445-6.701-0.229-9.991c0.549-1.489,1.378-2.839,2.403-4.015
	c-3.091,1.474-5.623,4.098-6.835,7.371c-1.216,3.29-0.769,6.716,0.229,9.991c1.839,6.041,4.047,11.993,5.928,18.034
	c2.027,6.514,4.244,12.994,7.188,19.151c7.435,15.556,21.371,28.246,39.592,24.594c5.464-1.095,10.506-3.618,14.51-7.317
	C136.075,91.833,132.661,93.186,129.058,93.906z"/>
<path fill="#FFFFFF" d="M208.653,86.032c-1.876,0.214-3.771,0.268-5.669,0.145c-16.25-1.059-21.944-15.135-26.146-28.931
	c-2.375-7.8-4.653-15.63-6.908-23.467c-1.808-6.271-5.859-14.632-3.44-21.175c1.864-5.04,6.855-8.56,12.209-8.669l54.16-1.111
	c7.34-0.15,13.408,5.736,13.558,13.148c0.283,13.941,2.444,28.917-1.523,42.506C240.74,72.7,222.636,84.439,208.653,86.032z"/>
<path fill="#D1D3D4" d="M183.26,53.604c-2.396-8.767-4.694-17.565-6.97-26.374c-1.692-6.554-5.33-15.146-3.896-22.222
	c-3.312,1.421-6.045,4.153-7.32,7.596c-2.418,6.542,1.636,14.904,3.439,21.175c2.257,7.837,4.536,15.667,6.911,23.467
	c4.201,13.796,9.895,27.872,26.146,28.931c1.896,0.123,3.793,0.069,5.668-0.145c0.163-0.019,0.333-0.046,0.502-0.067
	C192.81,83.77,187.339,68.542,183.26,53.604z"/>
<path fill="#E47E7E" d="M170.981,45.041c0.218-0.37,0.405-0.763,0.551-1.187c1.494-4.353,2.597-8.932,4.574-13.325
	c-2.213,4.631-3.363,9.499-4.947,14.112C171.113,44.775,171.052,44.909,170.981,45.041z"/>
<path fill="#E47E7E" d="M15.599,29.382c6.714-4.301,13.073-7.453,20.879-9.229c7.175-1.633,13.899-1.442,20.402,2.28
	c3.215,1.84,5.938,4.43,8.19,7.374c1.088,1.424,2.05,2.949,2.739,4.612c0.786,1.895,0.928,3.976,1.654,5.881
	c0.769,2.013,1.649,5.479,4.118,5.033c2.941-0.531,4.479-3.43,6.146-5.612c2.121-2.775,4.654-5.417,7.037-7.971
	c2.018-2.166,4.414-3.91,6.778-5.662c5.338-3.952,11.1-7.263,17.586-8.82c9.174-2.203,19.449-2.2,28.242,1.558
	c8.805,3.763,15.098,10.721,15.68,20.613c0.06,0.978,0.021,1.98-0.045,2.956c-0.086,1.241-0.388,2.565-0.109,3.799
	c0.314,1.401,1.581,2.468,2.834,3.041c1.692,0.774,3.651,0.273,5.336-0.275c1.796-0.585,3.774-1.224,5.3-2.384
	c1.386-1.055,2.085-2.7,2.648-4.307c2.036-5.809,3.453-12.044,6.505-17.433c2.028-3.583,4.995-6.519,7.837-9.44
	c2.152-2.215,4.817-4.245,7.397-5.925c8.772-5.713,20.271-7.772,30.353-5.008c3.946,1.083,7.175,2.603,10.423,5.104
	c6.669,5.134,10.265,14.362,14.591,18.538c2.972,2.867,4.889,5.12,8.451,2.867c3.637-2.295,6.719-5.473,10.089-8.138
	c3.699-2.925,7.38-5.88,11.259-8.561c8.089-5.593,18.564-11.266,28.618-7.975c4.479,1.466,10.368,4.866,12.953,8.782
	c0.59,0.895,1.073,1.742,1.492,2.564V0H0v40.571c1.786-1.816,3.877-3.376,5.938-4.851C9.072,33.479,12.358,31.459,15.599,29.382z"/>
<path fill="#E47E7E" d="M77.209,44.211c-0.067,0.085-0.137,0.169-0.207,0.251C77.073,44.384,77.142,44.299,77.209,44.211z"/>
<path fill="#E47E7E" d="M94.464,29.553c7.144-3.364,15.57-5.802,22.799-5.788c1.275,0.002,2.509-0.015,3.706-0.039
	C112.049,23.274,102.654,25.391,94.464,29.553z"/>
<path fill="#E47E7E" d="M168.818,47.22c-0.903,0.635-1.892,1.14-2.923,1.543c1.826-0.62,3.451-1.577,4.555-2.969
	C169.96,46.36,169.336,46.856,168.818,47.22z"/>
<path fill="#E47E7E" d="M10.933,35.444c-3.518,1.915-7.002,3.888-10.541,5.784c-0.099,0.052-0.209,0.09-0.312,0.131
	C0.048,41.372,0.029,41.376,0,41.387v0.122c0.981-0.43,2.298-1.112,4.157-2.14C5.237,38.773,7.684,37.275,10.933,35.444z"/>
<path fill="#B76768" d="M80.899,38.82c-2.229,2.548-2.866,4.313-3.69,5.392c0.365-0.452,0.711-0.933,1.072-1.415
	c4.118-5.497,9.783-9.992,16.183-13.244C88.633,32.299,83.658,35.662,80.899,38.82z"/>
<path fill="#B76768" d="M170.981,45.041c-0.157,0.267-0.341,0.513-0.531,0.753C170.657,45.554,170.841,45.301,170.981,45.041z"/>
<path fill="#B76768" d="M320.983,25.217v-7.574c-0.419-0.822-0.902-1.669-1.492-2.564c-2.585-3.917-8.475-7.316-12.953-8.782
	c-10.054-3.291-20.529,2.382-28.618,7.975c-3.879,2.681-7.56,5.636-11.259,8.561c-3.37,2.666-6.452,5.843-10.089,8.138
	c-3.562,2.252-5.479,0-8.451-2.867c-4.326-4.175-7.922-13.403-14.591-18.538c-3.248-2.501-6.478-4.021-10.423-5.104
	c-10.082-2.764-21.579-0.705-30.353,5.008c-2.58,1.68-5.245,3.709-7.397,5.925c-2.842,2.922-5.809,5.858-7.837,9.44
	c-3.052,5.389-4.469,11.625-6.505,17.433c-0.563,1.606-1.264,3.251-2.648,4.307c-1.524,1.161-3.504,1.799-5.3,2.384
	c-1.685,0.549-3.644,1.049-5.336,0.275c-1.253-0.573-2.52-1.64-2.834-3.041c-0.277-1.234,0.023-2.559,0.109-3.799
	c0.066-0.976,0.104-1.978,0.045-2.956c-0.583-9.892-6.875-16.85-15.68-20.613c-8.793-3.758-19.069-3.761-28.242-1.558
	c-6.486,1.558-12.248,4.869-17.586,8.82c-2.364,1.752-4.762,3.497-6.778,5.662c-2.383,2.554-4.916,5.196-7.037,7.971
	c-1.667,2.182-3.204,5.081-6.146,5.612c-2.469,0.445-3.351-3.02-4.118-5.033c-0.728-1.905-0.869-3.987-1.654-5.881
	c-0.689-1.663-1.651-3.188-2.739-4.612c-2.254-2.944-4.978-5.534-8.19-7.374c-6.503-3.722-13.229-3.913-20.402-2.28
	c-7.806,1.776-14.165,4.928-20.879,9.229c-3.24,2.078-6.526,4.098-9.661,6.338C3.877,37.195,1.786,38.755,0,40.571v0.816
	c0.029-0.011,0.048-0.016,0.08-0.028c0.104-0.042,0.213-0.079,0.312-0.131c3.539-1.896,7.023-3.869,10.541-5.784
	c3.551-1.934,7.134-3.808,10.837-5.481c9.933-4.489,20.592-6.633,30.721-1.391c6.312,3.267,10.642,8.438,15.191,13.74
	c1.709,1.991,3.648,5.035,6.759,4.004c1.1-0.365,1.876-1.048,2.562-1.853c-0.171,0.19-0.354,0.354-0.564,0.492
	c0.21-0.138,0.393-0.302,0.563-0.492c0.07-0.083,0.14-0.167,0.207-0.251c0.825-1.078,1.463-2.844,3.69-5.392
	c2.759-3.158,7.733-6.521,13.563-9.267c8.19-4.163,17.585-6.279,26.504-5.827c2.387-0.047,4.625-0.122,6.75-0.125
	c-2.125,0.002-4.363,0.077-6.75,0.125c3.887,0.197,7.683,0.874,11.247,2.09c4.358,1.487,8.477,3.817,12.362,6.28
	c1.108,0.703,2.188,1.461,3.175,2.332c1.669,1.473,3.419,2.854,3.845,5.172c0.516,2.812-0.222,6.87,2.133,9.019
	c0.567,0.519,1.356,0.928,2.091,1.145c1.461,0.43,3.042,0.469,4.521,0.301c1.861-0.213,3.776-0.604,5.557-1.3
	c-2.557,0.867-5.487,1.083-7.865,0.927c2.377,0.155,5.307-0.062,7.863-0.928c1.031-0.403,2.02-0.908,2.923-1.543
	c0.518-0.364,1.142-0.86,1.632-1.426c0.19-0.24,0.374-0.486,0.531-0.753c0.069-0.132,0.132-0.265,0.178-0.4
	c1.584-4.613,2.734-9.48,4.947-14.112c0.506-1.125,1.069-2.238,1.712-3.332c-0.642,1.093-1.205,2.205-1.711,3.33
	c2.012-4.212,4.899-8.229,9.828-11.676c5.564-3.893,20.23-8.854,35.062-4.788c3.945,1.082,7.797,2.693,11.366,4.699
	c5.257,2.955,9.752,6.83,14.607,10.364c2.638,1.92,6.442,5.816,10.005,3.563c9.475-5.992,17.489-14.017,28.214-17.86
	c2.951-1.058,6.003-1.775,9.126-2.068c4.746-0.446,9.915-0.311,14.491,1.154c4.604,1.474,7.669,4.985,9.885,9.168
	c0.9,1.7,1.567,3.508,2.294,5.285v-3.147C320.984,25.22,320.984,25.219,320.983,25.217z"/>
<path fill="#FFFFFF" d="M318.69,23.084c-2.216-4.183-5.281-7.694-9.885-9.168c-4.576-1.465-9.745-1.6-14.491-1.154
	c-3.123,0.293-6.175,1.01-9.126,2.068c-10.725,3.843-18.739,11.868-28.214,17.86c-0.127,0.081-0.256,0.136-0.384,0.201
	c0.487,7.73,1.743,15.293,4.515,22.25c6.373,16.012,26.14,28.036,43.313,21.073c0.761-0.309,1.49-0.653,2.193-1.034
	c3.598-1.947,6.485-4.812,8.76-8.197c2.568-3.823,4.337-7.871,5.611-12.06V28.369C320.259,26.593,319.592,24.785,318.69,23.084z"/>
</svg>
