<?xml version="1.0" encoding="utf-8"?>
<!-- Generator: Adobe Illustrator 16.0.0, SVG Export Plug-In . SVG Version: 6.00 Build 0)  -->
<!DOCTYPE svg PUBLIC "-//W3C//DTD SVG 1.1//EN" "http://www.w3.org/Graphics/SVG/1.1/DTD/svg11.dtd">
<svg version="1.1" id="Layer_1" xmlns="http://www.w3.org/2000/svg" xmlns:xlink="http://www.w3.org/1999/xlink" x="0px" y="0px"
	 width="139.174px" height="49.927px" viewBox="0 0 139.174 49.927" enable-background="new 0 0 139.174 49.927"
	 xml:space="preserve">
<g>
	<g>
		<g>
			<path fill="#FFFFFF" d="M12.277,14.287c3.338-3.405,5.03-6.116,9.749-1.667c1.664,1.568,3.114,2.845,5.393,3.327
				c0.261,0.056,0.577-0.028,0.706-0.287c1.043-2.101,2.178-3.896,3.754-5.661c0.849-0.893,1.816-1.637,2.903-2.235
				c0.963-0.589,8.135-1.151,7.114,0.679c-2.013,3.607-6.158,6.452-8.627,9.894c-3.244,4.522-6.791,8.718-10.335,12.998
				c-2.604,3.146-8.708,12.777-13.249,9.441c-5.884-4.323,1.638-6.116,4.906-8.109c3.069-1.872,4.732-5.463,6.055-8.642
				c0.828-1.991,1.941-4.045,0.964-6.104c-1.468-3.094-6.678-4.269-9.608-4.68c-0.788-0.111-1.127,1.094-0.332,1.205
				c3.235,0.455,10.341,2.058,8.716,6.665c-1.377,3.907-2.952,7.947-6.426,10.477c-3.055,2.225-7.22,2.891-9.414,6.19
				c-0.141,0.211-0.112,0.595,0.098,0.758c2.344,1.825,4.76,3.552,7.126,5.348c0.158,0.119,0.473,0.118,0.631,0
				c6.531-4.898,11.537-11.69,16.729-17.922c2.869-3.443,5.188-7.309,8.043-10.759c2.127-2.569,4.796-4.327,6.452-7.294
				c0.159-0.284,0.084-0.699-0.224-0.855c-6.857-3.485-12.252,0.64-15.719,6.693c-1.281,2.236-5.653-2.848-6.655-3.689
				c-1.084-0.911-2.315-1.261-3.694-1.465c-2.616-0.388-4.466,3.305-5.939,4.808C10.829,13.979,11.712,14.863,12.277,14.287
				L12.277,14.287z"/>
		</g>
	</g>
	<g>
		<g>
			<path fill="#FFFFFF" d="M16.091,8.742c-2.353,0.742-4.82,1.008-7.172,1.75c-0.766,0.241-0.439,1.448,0.332,1.205
				c2.353-0.742,4.82-1.008,7.172-1.75C17.189,9.706,16.862,8.499,16.091,8.742L16.091,8.742z"/>
		</g>
	</g>
	<g>
		<g>
			<path fill="#FFFFFF" d="M11.669,13.242c-1.555,0.35-3.182,0.283-4.75,0.572c-0.792,0.146-0.456,1.351,0.332,1.205
				c1.569-0.289,3.192-0.222,4.75-0.572C12.788,14.271,12.455,13.065,11.669,13.242L11.669,13.242z"/>
		</g>
	</g>
	<g>
		<g>
			<path fill="#FFFFFF" d="M8.644,10.904c-1.015,0.81-1.458,2.043-2.25,3.035c-0.498,0.623,0.381,1.514,0.884,0.884
				c0.783-0.981,1.255-2.241,2.25-3.035C10.157,11.285,9.267,10.406,8.644,10.904L8.644,10.904z"/>
		</g>
	</g>
	<g>
		<g>
			<path fill="#FFFFFF" d="M6.77,15.384c3.701,1.958,7.486,3.701,11.399,5.189c0.755,0.287,1.078-0.922,0.332-1.205
				c-3.814-1.45-7.495-3.156-11.101-5.063C6.689,13.928,6.057,15.007,6.77,15.384L6.77,15.384z"/>
		</g>
	</g>
	<g>
		<g>
			<path fill="#FFFFFF" d="M18.127,20.72c1.12-0.034,2.139-0.48,3.065-1.085c0.672-0.438,0.046-1.521-0.631-1.079
				c-0.739,0.482-1.536,0.887-2.435,0.915C17.323,19.494,17.32,20.745,18.127,20.72L18.127,20.72z"/>
		</g>
	</g>
	<g>
		<g>
			<path fill="#FFFFFF" d="M17.685,19.903c-2.987,2.776-4.445,6.647-7.406,9.443c-3.111,2.938-6.985,4.955-10.104,7.9
				c-0.312,0.295-0.198,0.979,0.276,1.045c1.481,0.207,2.929,0.278,4.427,0.286c0.806,0.004,0.806-1.246,0-1.25
				c-1.392-0.007-2.708-0.048-4.095-0.241c0.092,0.348,0.184,0.696,0.276,1.045c2.873-2.713,6.277-4.783,9.351-7.253
				c3.483-2.799,4.927-7.087,8.16-10.091C19.161,20.237,18.274,19.355,17.685,19.903L17.685,19.903z"/>
		</g>
	</g>
	<g>
		<g>
			<path fill="#FFFFFF" d="M0.175,38.395c2.084,2.463,4.875,4.131,7.062,6.486c0.549,0.592,1.432-0.295,0.884-0.885
				c-2.188-2.355-4.978-4.022-7.062-6.486C0.537,36.895-0.342,37.783,0.175,38.395L0.175,38.395z"/>
		</g>
	</g>
	<g>
		<g>
			<path fill="#FFFFFF" d="M11.679,42.813c-1.592,0.014-2.868,0.464-4.315,1.085c-0.739,0.317-0.102,1.395,0.631,1.08
				c1.244-0.534,2.319-0.903,3.685-0.915C12.485,44.057,12.485,42.807,11.679,42.813L11.679,42.813z"/>
		</g>
	</g>
	<g>
		<g>
			<path fill="#FFFFFF" d="M100.139,25.853c-1.719-2.358-5.922-2.07-8.448-1.703c-4.271,0.62-5.829,3.194-6.364,7.353
				c-1.011,7.855,7.807,15.568,14.007,8.343c-0.349-0.093-0.697-0.185-1.045-0.276c1.268,3.933,3.517,4.463,7.724,3.557
				c1.021-0.22,1.418-1.34,1.456-2.25c0.132-3.165,0.205-6.321,0.408-9.484c0.2-3.11,1.306-9.082-2.562-10.03
				c-3.231-0.792-6.629,1.054-6.382,4.557c0.057,0.8,1.307,0.805,1.25,0c-0.243-3.442,5.888-5.204,6.231-1.347
				c0.202,2.271,0.329,4.541,0.213,6.819c-0.131,2.562-0.311,5.113-0.37,7.68c-0.053,2.248-0.33,2.998-2.87,3.037
				c-2.246,0.034-3.27-0.939-3.893-2.871c-0.134-0.416-0.722-0.652-1.045-0.276c-5.318,6.199-12.003-0.108-11.938-6.43
				c0.032-3.228,1.203-6.352,4.653-7.051c1.999-0.405,6.531-0.867,7.895,1.004C99.528,27.128,100.614,26.505,100.139,25.853
				L100.139,25.853z"/>
		</g>
	</g>
	<g>
		<g>
			<path fill="#FFFFFF" d="M100.056,29.811c-2.606-0.37-5.525-1.17-8.094-0.229c-2.57,0.94-2.812,4.324-1.752,6.501
				c1.202,2.469,3.764,2.496,5.971,1.362c2.544-1.307,4.4-4.163,4.334-7.031c-0.019-0.805-1.269-0.807-1.25,0
				c0.053,2.293-1.273,4.27-3.092,5.57c-1.921,1.374-4.322,1.43-5.074-1.142c-1.702-5.812,5.394-4.285,8.625-3.826
				C100.512,31.128,100.852,29.923,100.056,29.811L100.056,29.811z"/>
		</g>
	</g>
	<g>
		<g>
			<path fill="#FFFFFF" d="M88.755,24.879c-4.772,2.714-6.23,9.675-4.948,14.689c1.552,6.067,9.118,6.645,13.735,4.036
				c-0.306-0.125-0.612-0.249-0.918-0.374c0.111,0.389,0.222,0.777,0.333,1.166c0.102,0.356,0.585,0.62,0.918,0.374
				c0.899-0.666,1.756-1.3,2.819-1.707c0.745-0.285,0.422-1.494-0.332-1.205c-1.16,0.444-2.119,1.093-3.118,1.832
				c0.306,0.125,0.612,0.249,0.918,0.374c-0.111-0.389-0.222-0.777-0.333-1.166c-0.112-0.393-0.564-0.573-0.918-0.374
				c-4.461,2.521-10.637,1.648-12.062-3.926c-1.083-4.235,0.646-10.428,4.537-12.64C90.086,25.561,89.457,24.48,88.755,24.879
				L88.755,24.879z"/>
		</g>
	</g>
	<g>
		<g>
			<path fill="#FFFFFF" d="M105.442,42.025c-1.12,0.623-2.027,1.646-3.215,2.132c-1.448,0.593-3.17-0.589-4.668-0.552
				c-0.805,0.021-0.807,1.271,0,1.25c1.563-0.039,3.009,1.001,4.597,0.607c1.534-0.381,2.568-1.608,3.917-2.357
				C106.778,42.714,106.147,41.634,105.442,42.025L105.442,42.025z"/>
		</g>
	</g>
	<g>
		<g>
			<path fill="#FFFFFF" d="M102.879,21.171c-2.18,0.215-7.411,0.19-6.375,3.722c0.227,0.771,1.433,0.443,1.205-0.332
				c-0.631-2.153,3.921-2.017,5.17-2.14C103.674,22.343,103.681,21.092,102.879,21.171L102.879,21.171z"/>
		</g>
	</g>
	<g>
		<g>
			<path fill="#FFFFFF" d="M91.068,32.203c1.211-0.045,2.529,0.057,3.49,0.879c1.002,0.857,1.021,2.287,0.877,3.49
				c-0.096,0.8,1.155,0.79,1.25,0c0.19-1.594-0.043-3.219-1.243-4.375c-1.138-1.095-2.872-1.3-4.374-1.244
				C90.265,30.982,90.262,32.233,91.068,32.203L91.068,32.203z"/>
		</g>
	</g>
	<g>
		<g>
			<path fill="#FFFFFF" d="M72.39,24.793c-1.72-2.358-5.922-2.07-8.449-1.703c-4.271,0.62-5.829,3.194-6.364,7.353
				c-1.011,7.855,7.806,15.569,14.006,8.343c-0.349-0.093-0.697-0.185-1.045-0.276c1.269,3.932,3.517,4.464,7.724,3.557
				c1.021-0.22,1.418-1.34,1.456-2.25c0.132-3.165,0.205-6.321,0.409-9.484c0.2-3.111,1.306-9.082-2.562-10.03
				c-3.231-0.792-6.63,1.053-6.383,4.557c0.057,0.8,1.307,0.805,1.25,0c-0.243-3.443,5.889-5.204,6.232-1.347
				c0.202,2.271,0.329,4.541,0.213,6.819c-0.131,2.562-0.311,5.113-0.371,7.68c-0.053,2.247-0.329,2.998-2.869,3.037
				c-2.246,0.034-3.271-0.939-3.894-2.871c-0.134-0.416-0.722-0.652-1.045-0.276c-5.318,6.2-12.002-0.108-11.938-6.43
				c0.033-3.228,1.204-6.352,4.654-7.051c1.999-0.405,6.531-0.867,7.895,1.004C71.779,26.068,72.865,25.445,72.39,24.793
				L72.39,24.793z"/>
		</g>
	</g>
	<g>
		<g>
			<path fill="#FFFFFF" d="M72.307,28.751c-2.607-0.37-5.526-1.17-8.094-0.229c-2.57,0.94-2.812,4.324-1.751,6.501
				c1.202,2.469,3.763,2.496,5.971,1.362c2.543-1.307,4.4-4.163,4.334-7.031c-0.019-0.805-1.269-0.807-1.25,0
				c0.053,2.293-1.273,4.27-3.093,5.57c-1.921,1.374-4.321,1.43-5.074-1.142c-1.701-5.812,5.394-4.285,8.626-3.826
				C72.763,30.068,73.103,28.863,72.307,28.751L72.307,28.751z"/>
		</g>
	</g>
	<g>
		<g>
			<path fill="#FFFFFF" d="M61.005,23.82c-4.772,2.714-6.231,9.676-4.948,14.689c1.552,6.067,9.119,6.645,13.735,4.036
				c-0.306-0.125-0.612-0.249-0.918-0.374c0.111,0.389,0.222,0.777,0.333,1.166c0.102,0.356,0.585,0.62,0.918,0.374
				c0.9-0.666,1.756-1.3,2.82-1.707c0.745-0.285,0.422-1.494-0.332-1.205c-1.16,0.444-2.119,1.093-3.119,1.832
				c0.306,0.125,0.612,0.249,0.918,0.374c-0.111-0.389-0.222-0.777-0.333-1.166c-0.112-0.393-0.564-0.573-0.918-0.374
				c-4.461,2.521-10.636,1.648-12.062-3.926c-1.083-4.235,0.646-10.428,4.537-12.64C62.337,24.5,61.707,23.42,61.005,23.82
				L61.005,23.82z"/>
		</g>
	</g>
	<g>
		<g>
			<path fill="#FFFFFF" d="M77.692,40.966c-1.12,0.623-2.027,1.646-3.215,2.132c-1.448,0.592-3.17-0.589-4.667-0.552
				c-0.805,0.021-0.807,1.271,0,1.25c1.564-0.039,3.008,1.001,4.596,0.607c1.534-0.38,2.568-1.608,3.917-2.357
				C79.027,41.654,78.397,40.574,77.692,40.966L77.692,40.966z"/>
		</g>
	</g>
	<g>
		<g>
			<path fill="#FFFFFF" d="M75.13,20.111c-2.181,0.214-7.411,0.189-6.375,3.722c0.226,0.772,1.433,0.443,1.205-0.332
				c-0.631-2.153,3.921-2.017,5.17-2.14C75.925,21.283,75.932,20.032,75.13,20.111L75.13,20.111z"/>
		</g>
	</g>
	<g>
		<g>
			<path fill="#FFFFFF" d="M63.319,31.144c1.21-0.045,2.529,0.057,3.49,0.879c1.002,0.857,1.021,2.287,0.877,3.49
				c-0.095,0.8,1.156,0.79,1.25,0c0.19-1.594-0.042-3.219-1.243-4.375c-1.138-1.095-2.872-1.3-4.374-1.244
				C62.515,29.923,62.512,31.174,63.319,31.144L63.319,31.144z"/>
		</g>
	</g>
	<g>
		<g>
			<path fill="#FFFFFF" d="M38.52,30.871c4.385,0.438,9.02,0.499,13.335-0.471c4.104-0.923,3.126-4.737,2.257-7.974
				c-1.088-4.056-7.442-4.65-10.729-4.698c-4.215-0.061-8.081,1.115-9.76,5.205c-1.485,3.617-0.398,9.241,1.128,12.678
				c2.301,5.184,6.244,8.387,11.998,8.662c1.1,0.053,7.883-1.281,5.683-3.667c-1.365-1.48-2.756-1.346-4.735-1.229
				c-4.347,0.254-10.49-3.764-8.575-8.965c0.279-0.758-0.929-1.082-1.205-0.332c-1.672,4.542,2.753,9.412,6.932,10.565
				c0.883,0.244,1.959,0.044,2.849-0.019c0.704-0.063,1.409-0.084,2.114-0.063c0.244,0.554,0.487,1.107,0.731,1.661
				c-1.197,0.571-2.461,0.838-3.793,0.799c-6.407,0.384-10.362-5.361-11.755-10.844c-1.105-4.349-1.601-10.561,3.524-12.505
				c3.654-1.386,8.629-0.888,12.072,0.776c2.473,1.195,2.801,3.92,3.033,6.325c0.28,2.9-4.12,2.819-5.883,2.972
				c-3.044,0.264-6.183,0.177-9.222-0.127C37.718,29.541,37.726,30.792,38.52,30.871L38.52,30.871z"/>
		</g>
	</g>
	<g>
		<g>
			<path fill="#FFFFFF" d="M48.995,22.818c-1.826-1.125-11.948-2.325-10.755,1.906c0.294,1.044,1.473,1.772,2.322,2.308
				c1.725,1.088,3.874,1.594,5.894,1.597c1.307,0.001,3.323-0.486,3.878-1.848c0.543-1.331-0.408-2.67-1.115-3.738
				c-0.442-0.669-1.525-0.043-1.079,0.631c0.541,0.817,1.741,2.229,0.633,3.057c-1.265,0.944-3.19,0.7-4.615,0.396
				c-0.607-0.13-5.754-1.989-4.588-3.236c0.879-0.94,2.966-0.904,4.125-0.922c1.534-0.025,3.332,0.105,4.669,0.929
				C49.052,24.321,49.679,23.24,48.995,22.818L48.995,22.818z"/>
		</g>
	</g>
	<g>
		<g>
			<path fill="#FFFFFF" d="M41.207,17.859c-9.699,1.232-11.079,9.378-8.923,17.722c1.981,7.667,12.74,13.825,19.169,7.203
				c0.562-0.579-0.321-1.464-0.884-0.885c-6.655,6.855-15.653-1.126-17.42-7.967c-1.809-7.003,0.055-13.807,8.058-14.823
				C41.995,19.009,42.005,17.758,41.207,17.859L41.207,17.859z"/>
		</g>
	</g>
	<g>
		<g>
			<path fill="#FFFFFF" d="M38.233,33.666c4.572,0.48,12.207-0.505,15.543-3.987c0.558-0.582-0.325-1.468-0.884-0.885
				c-3.069,3.203-10.474,4.062-14.66,3.622C37.432,32.332,37.439,33.583,38.233,33.666L38.233,33.666z"/>
		</g>
	</g>
	<g>
		<g>
			<path fill="#FFFFFF" d="M42.399,22.995c1.631,0.235,6.17,2.657,3.516,4.471c-0.661,0.452-0.037,1.536,0.631,1.08
				c3.769-2.576-0.9-6.337-3.814-6.756C41.943,21.676,41.604,22.881,42.399,22.995L42.399,22.995z"/>
		</g>
	</g>
	<g>
		<g>
			<path fill="#FFFFFF" d="M42.564,6.615c-3.958-0.826-8.3-3.438-12.358-1.843c-3.398,1.335-4.231,6.181-6.896,8.38
				c-0.623,0.514,0.267,1.393,0.884,0.884c2.395-1.976,3.313-5.06,5.385-7.316c2.925-3.185,9.245,0.389,12.653,1.1
				C43.019,7.984,43.354,6.78,42.564,6.615L42.564,6.615z"/>
		</g>
	</g>
	<g>
		<g>
			<g>
				<path fill="#FFFFFF" d="M116.157,8.928c1.108,12.017,2.034,24.022,1.427,36.096c-0.014,0.269,0.199,0.541,0.459,0.603
					c11.238,2.684,5.855-9.964,7.149-16.673c0.078-0.289,0.155-0.579,0.233-0.868c0.679-2.879,2.7-3.124,6.063-0.734
					c0.441,1.342,0.393,2.956,0.417,4.362c0.051,2.894-0.011,5.801-0.109,8.692c-0.054,1.559-0.641,6.309,2.469,5.662
					c3.155-0.655,4.567-1.05,4.782-4.377c0.361-5.604-0.044-11.792-1.372-17.261c-1.503-6.187-11.819-10.085-15.296-3.538
					c0.389,0.105,0.776,0.21,1.165,0.315c-0.077-5.498,1.576-16.836-3.629-20.517c-4.812-3.401-3.79,6.802-3.752,8.07
					c0.024,0.804,1.274,0.807,1.25,0c-0.034-1.125-0.155-2.229-0.271-3.349c-0.54-2.151,0.769-2.578,3.924-1.277
					c0.371,1.613,0.634,3.245,0.788,4.895c0.475,4.026,0.383,8.13,0.439,12.177c0.009,0.602,0.865,0.879,1.165,0.315
					c2.076-3.912,6.909-2.814,9.957-1.229c3.168,1.648,3.5,6.185,3.861,9.242c0.348,2.947,0.408,5.897,0.448,8.861
					c0.015,1.099,0.056,2.195,0.071,3.294c0.036,2.545-1.253,2.333-2.916,2.975c-2.519,0.972-1.741-9.118-1.747-10.027
					c-0.015-2.138,0.05-4.239-0.198-6.369c-0.294-2.525-1.374-4.332-3.867-4.95c-1.993-0.495-3.872,1.968-4.477,3.494
					c-1.897,4.785-0.548,9.764-0.436,14.727c0.235,1.942-0.597,3.072-2.494,3.388c-2.869,0.362-2.741-1.59-2.663-3.727
					c0.138-3.786,0.058-7.578-0.067-11.363c-0.229-6.984-0.884-13.954-1.525-20.909C117.334,8.132,116.083,8.125,116.157,8.928
					L116.157,8.928z"/>
			</g>
		</g>
		<g>
			<g>
				<path fill="#FFFFFF" d="M117.083,0.68c-2.413,1.503-3.865,3.055-3.367,6.023c1.206,7.193,0.599,14.47,0.79,21.73
					c0.15,5.711-1.461,11.629-0.64,17.233c0.381,2.601,3.462,0.902,4.537-0.13c0.582-0.56-0.304-1.442-0.885-0.885
					c-4.045,3.888-2.072-5.749-1.919-7.646c0.326-4.043,0.174-8.117,0.058-12.166c-0.127-4.416,0.179-8.823-0.031-13.241
					c-0.185-3.873-2.008-7.289,2.088-9.84C118.396,1.334,117.77,0.252,117.083,0.68L117.083,0.68z"/>
			</g>
		</g>
		<g>
			<g>
				<path fill="#FFFFFF" d="M115.107,47.298c1.789,0.509,3.21,1.664,5.145,1.399c1.652-0.226,2.545-1.936,3.374-3.162
					c0.452-0.67-0.631-1.295-1.08-0.631c-0.904,1.34-1.689,2.897-3.612,2.556c-1.21-0.216-2.305-1.029-3.494-1.367
					C114.662,45.872,114.333,47.078,115.107,47.298L115.107,47.298z"/>
			</g>
		</g>
		<g>
			<g>
				<path fill="#FFFFFF" d="M125.502,27.197c4.385-1.608,4.149,6.428,3.996,8.707c-0.286,4.271-0.734,8.479-0.015,12.731
					c0.072,0.427,0.588,0.532,0.918,0.374c1.667-0.805,2.596-1.945,3.6-3.475c0.443-0.676-0.64-1.302-1.08-0.631
					c-2.355,3.588-2.616,0.426-2.616-1.877c0-1.918,0.19-3.843,0.338-5.754c0.16-2.056,0.335-4.079-0.023-6.125
					c-0.521-2.979-1.84-6.48-5.449-5.156C124.42,26.268,124.743,27.476,125.502,27.197L125.502,27.197z"/>
			</g>
		</g>
		<g>
			<g>
				<path fill="#FFFFFF" d="M130.086,49.509c1.744,0.053,4.066,0.915,5.707-0.003c1.814-1.015,1.933-3.382,2.865-5.053
					c0.393-0.705-0.688-1.335-1.08-0.631c-0.75,1.346-0.93,3.113-1.937,4.29c-1.052,1.229-4.191,0.188-5.556,0.146
					C129.279,48.234,129.281,49.484,130.086,49.509L130.086,49.509z"/>
			</g>
		</g>
	</g>
</g>
</svg>
